<svg xmlns="http://www.w3.org/2000/svg" viewBox="0 0 512 512"><path fill="#D80027" d="M0 0H512V512H0z"/><path d="M0 0H170.663V512H0z"/><path fill="#496E2D" d="M341.337 0H512V512H341.337z"/><path d="M256 183.652c-39.956 0-72.348 32.392-72.348 72.348s32.392 72.348 72.348 72.348 72.348-32.392 72.348-72.348-32.392-72.348-72.348-72.348zm0 117.565c-24.973 0-45.217-20.244-45.217-45.217s20.244-45.217 45.217-45.217 45.217 20.244 45.217 45.217-20.244 45.217-45.217 45.217z" fill="#FFDA44"/><path d="M256 228.87c-9.99 0-18.087 8.097-18.087 18.087v27.13h36.174v-27.13c0-9.99-8.097-18.087-18.087-18.087z" fill="#FFDA44"/></svg>