<svg xmlns="http://www.w3.org/2000/svg" viewBox="0 0 512 512"><path d="M0 0H512V512H0z"/><path fill="#FFDA44" d="M369.883 208.509L142.117 208.509 188.651 186.618 163.871 141.552 214.4 151.217 220.806 100.172 256 137.716 291.197 100.172 297.599 151.217 348.13 141.552 323.351 186.622z"/><path d="M88.751 204.797c-2.239 16.543-3.417 33.665-3.417 51.201s1.179 34.657 3.417 51.201L256 322.781l167.249-15.583c2.239-16.543 3.417-33.665 3.417-51.201s-1.179-34.657-3.417-51.201" fill="#0052B4"/><path d="M423.249 307.198H88.751C104.564 424.049 173.433 512 256 512s151.436-87.951 167.249-204.802z" fill="#F0F0F0"/><path fill="#A2001D" d="M255.997 511.994L0 0 0 511.994z"/><path fill="#A2001D" d="M512 511.994L512 0 256.003 511.994z"/></svg>