<svg enable-background="new 0 0 512 512" viewBox="0 0 512 512" xmlns="http://www.w3.org/2000/svg"><path d="m.002.002h511.998v511.998h-511.998z" fill="#2e52b2"/><path d="m427.755 295.821c4.907-6.752 8.185-14.997 8.185-24.982v-74.203c-6.202 4.659-13.907 7.421-22.261 7.421-12.138 0-22.912-5.829-29.681-14.839-6.77 9.01-17.544 14.839-29.681 14.839-8.353 0-16.059-2.761-22.261-7.418v74.201c0 9.985 3.278 18.232 8.185 24.982h87.514z" fill="#f3f3f3"/><g fill="#ff9811"><path d="m412.318 257.073c2.362-5.763 4.2-14.188 4.2-18.382 0-6.737-8.783-12.198-8.783-12.198s-8.783 5.461-8.783 12.198c0 4.194 1.838 12.619 4.199 18.382l-5.07 11.448c2.98 1.212 6.237 1.885 9.653 1.885s6.673-.673 9.653-1.885z"/><path d="m377.992 220.007c-6.171.836-14.385 3.459-18.017 5.556-5.835 3.369-6.173 13.704-6.173 13.704s9.121 4.875 14.955 1.507c3.632-2.097 10.008-7.9 13.816-12.828l12.45-1.333c-.441-3.186-1.488-6.343-3.194-9.302-1.71-2.958-3.919-5.444-6.459-7.418z"/><path d="m363.058 268.269c3.809 4.925 10.187 10.727 13.818 12.824 5.835 3.368 14.955-1.507 14.955-1.507s-.339-10.336-6.173-13.705c-3.633-2.097-11.846-4.717-18.019-5.552l-7.378-10.115c-2.539 1.975-4.75 4.461-6.459 7.416-1.707 2.96-2.753 6.116-3.194 9.304z"/></g><path d="m338.406 293.101c13.86 22.236 45.592 29.679 45.592 29.679s31.733-7.443 45.592-29.679z" fill="#338af3"/><path d="m255.999 0v48.896l-40.147 40.147h40.147v77.913h-52.536l52.536 52.535v36.508h-23.719l-65.324-65.335v65.335h-77.913v-77.724l-77.712 77.724h-11.331v-48.896l40.147-40.147h-40.147v-77.913h52.535l-52.535-52.535v-36.508h23.719l65.324 65.335v-65.335h77.913v77.723l77.712-77.723z" fill="#f0f0f0"/><path d="m0 152h104v103.999h48v-103.999h103.999v-48h-103.999v-104h-48v104h-104z" fill="#d80027"/><path d="m166.956 166.956 89.043 89.043v-25.18l-63.863-63.863z" fill="#0052b4"/><path d="m166.956 166.956 89.043 89.043v-25.18l-63.863-63.863z" fill="#f0f0f0"/><path d="m166.956 166.956 89.043 89.043v-25.18l-63.863-63.863z" fill="#d80027"/><path d="m63.862 166.958-63.862 63.862v25.179l89.041-89.041z" fill="#d80027"/><path d="m89.043 89.043-89.043-89.043v25.18l63.863 63.863z" fill="#0052b4"/><path d="m89.043 89.043-89.043-89.043v25.18l63.863 63.863z" fill="#f0f0f0"/><path d="m89.043 89.043-89.043-89.043v25.18l63.863 63.863z" fill="#d80027"/><path d="m192.137 89.041 63.862-63.862v-25.179l-89.041 89.041z" fill="#d80027"/></svg>