<svg enable-background="new 0 0 512 512" viewBox="0 0 512 512" xmlns="http://www.w3.org/2000/svg"><path d="m0 0h512v512h-512z"/><path d="m0 0h512v256h-512z" fill="#d80027"/><g fill="#ffda44"><path d="m232.598 221.075 14.469 10.499-5.513 17.005 14.456-10.516 14.47 10.5-5.536-17 14.458-10.517-17.877.011-5.535-16.999-5.515 17.006z"/><path d="m298.666 182.099c-13.449-7.765-28.153-11.43-42.666-11.404v22.255c10.728-.019 21.595 2.688 31.536 8.427 30.119 17.389 40.476 56.04 23.086 86.158-17.388 30.119-56.04 40.476-86.158 23.087-8.774-5.065-15.858-11.944-21.08-19.882l-18.584 12.27c7.066 10.739 16.662 20.037 28.533 26.891 40.75 23.526 93.04 9.515 116.567-31.234s9.516-93.041-31.234-116.568z"/><path d="m206.792 241.16c-5.9 10.786-1.939 24.313 8.846 30.214l72.299 39.506c-4.916 8.988-2.306 19.927 6.682 24.843l19.531 10.683c8.988 4.917 20.261 1.616 25.178-7.372l10.683-19.529z"/></g></svg>