<svg xmlns="http://www.w3.org/2000/svg" viewBox="0 0 512 512"><path fill="#0052B4" d="M0 0H512V507.793H0z"/><path fill="#D80027" d="M512 36.632L59.699 259.41 512 482.189 512 512 0 259.41 512 6.822z"/><path fill="#F0F0F0" d="M512 431.849L512 482.189 59.699 259.41 512 36.632 512 86.973"/><path d="M493.301 253.493h-29.275c7.612-9.139 7.141-22.736-1.432-31.31 9.084-9.082 9.084-23.81 0-32.895l-.546.549c9.082-9.082 9.63-24.359.546-33.441L331.019 287.971c9.084 9.085 23.552 8.976 32.634-.108l2.532-2.314 63.003-5.728v27.097h21.37v-29.04l32.056-2.913 10.687-21.472z" fill="#A2001D"/><path fill="#FFDA44" d="M333.03 316.084L311.652 305.399 333.03 294.714 471.938 294.714 471.938 316.084z"/></svg>