<svg enable-background="new 0 0 512 512" viewBox="0 0 512 512" xmlns="http://www.w3.org/2000/svg"><path d="m0 0h512v512h-512z" fill="#0052b4"/><g fill="#f0f0f0"><path d="m128 307.482 13.697 28.642 30.933-7.15-13.852 28.568 24.874 19.726-30.97 6.98.085 31.749-24.767-19.863-24.767 19.863.086-31.749-30.971-6.98 24.875-19.726-13.853-28.568 30.933 7.15z"/><path d="m387.844 343.989 6.534 13.661 14.753-3.409-6.607 13.624 11.865 9.41-14.772 3.329.041 15.143-11.814-9.474-11.812 9.474.041-15.143-14.772-3.329 11.865-9.41-6.609-13.624 14.755 3.409z"/><path d="m327.066 199.066 6.533 13.662 14.754-3.411-6.606 13.626 11.864 9.409-14.773 3.329.04 15.143-11.812-9.474-11.813 9.474.041-15.143-14.772-3.329 11.864-9.409-6.607-13.626 14.753 3.411z"/><path d="m387.844 116.253 6.534 13.661 14.753-3.41-6.606 13.626 11.864 9.408-14.772 3.331.041 15.142-11.814-9.474-11.812 9.474.041-15.142-14.772-3.331 11.864-9.408-6.608-13.626 14.755 3.41z"/><path d="m440.934 178.363 6.534 13.661 14.753-3.41-6.607 13.626 11.864 9.409-14.772 3.329.041 15.143-11.813-9.475-11.812 9.475.04-15.143-14.773-3.329 11.864-9.409-6.607-13.626 14.755 3.41z"/><path d="m402.973 250.824 5.139 15.817h16.63l-13.455 9.774 5.139 15.816-13.453-9.775-13.455 9.775 5.139-15.816-13.453-9.774h16.629z"/><path d="m256 0v48.896l-40.147 40.147h40.147v77.914h-52.536l52.536 52.535v36.508h-23.719l-65.324-65.336v65.336h-77.914v-77.724l-77.712 77.724h-11.331v-48.896l40.147-40.147h-40.147v-77.914h52.536l-52.536-52.535v-36.508h23.719l65.324 65.336v-65.336h77.914v77.724l77.712-77.724z"/></g><path d="m0 152.001h103.999l.002 103.999h48v-103.999h103.999v-48h-104.001l.002-104.001h-48v104.001h-104.001z" fill="#d80027"/><path d="m166.957 166.957 89.043 89.043v-25.18l-63.863-63.863z" fill="#0052b4"/><path d="m166.957 166.957 89.043 89.043v-25.18l-63.863-63.863z" fill="#f0f0f0"/><path d="m166.957 166.957 89.043 89.043v-25.18l-63.863-63.863z" fill="#d80027"/><path d="m63.862 166.959-63.862 63.862v25.179l89.041-89.041z" fill="#d80027"/><path d="m89.043 89.043-89.043-89.043v25.18l63.863 63.863z" fill="#0052b4"/><path d="m89.043 89.043-89.043-89.043v25.18l63.863 63.863z" fill="#f0f0f0"/><path d="m89.043 89.043-89.043-89.043v25.18l63.863 63.863z" fill="#d80027"/><path d="m192.138 89.041 63.862-63.862v-25.179l-89.041 89.041z" fill="#d80027"/></svg>