<svg xmlns="http://www.w3.org/2000/svg" viewBox="0 0 512 512"><path fill="#D80027" d="M0 0.006H512V511.99499999999995H0z"/><path fill="#338AF3" d="M0 0H512V170.663H0z"/><path fill="#6DA544" d="M0 341.337H512V512H0z"/><path d="M261.334 325.334C223.042 325.334 192 294.292 192 256s31.042-69.334 69.334-69.334c11.94 0 23.172 3.019 32.982 8.333-15.387-15.046-36.428-24.333-59.648-24.333-47.128 0-85.333 38.205-85.333 85.334s38.205 85.334 85.333 85.334c23.22 0 44.261-9.287 59.648-24.333-9.81 5.313-21.043 8.333-32.982 8.333z" fill="#F0F0F0"/><path fill="#F0F0F0" d="M314.666 208L323.85 233.828 348.609 222.058 336.838 246.815 362.666 256 336.838 265.185 348.609 289.942 323.85 278.172 314.666 304 305.484 278.172 280.725 289.942 292.494 265.185 266.666 256 292.494 246.815 280.725 222.058 305.484 233.828z"/></svg>