<svg enable-background="new 0 0 512 512" viewBox="0 0 512 512" xmlns="http://www.w3.org/2000/svg"><path d="m21.858 0h-21.858v13.62l4.499 13.833 27.548-.017-22.282 16.194 8.525 26.21-18.29-13.282v455.442h450.359l-21.591-15.678 27.548-.018 8.508-26.21 8.525 26.21 27.548-.017-21.622 15.713h32.725v-21.857zm-1.246 116.742 8.49-26.193-22.3-16.191 27.548-.018 8.508-26.21 8.525 26.21 27.548-.017-22.282 16.192 8.526 26.21-22.299-16.193zm46.885 46.885 8.491-26.193-22.298-16.192 27.548-.018 8.508-26.209 8.525 26.209 27.548-.017-22.284 16.193 8.526 26.21-22.299-16.193zm46.885 46.885 8.491-26.192-22.3-16.193 27.548-.018 8.508-26.21 8.525 26.21 27.548-.017-22.282 16.193 8.525 26.21-22.299-16.193zm46.885 46.885 8.49-26.193-22.299-16.193 27.548-.018 8.508-26.21 8.525 26.21 27.548-.017-22.282 16.193 8.526 26.21-22.299-16.193zm46.884 46.885 8.491-26.193-22.299-16.193 27.548-.018 8.508-26.209 8.525 26.209 27.548-.017-22.282 16.193 8.526 26.21-22.299-16.193zm46.886 46.884 8.491-26.192-22.3-16.193 27.548-.018 8.508-26.21 8.525 26.21 27.548-.017-22.282 16.193 8.525 26.21-22.299-16.193zm46.885 46.886 8.49-26.193-22.299-16.193 27.548-.018 8.508-26.21 8.525 26.21 27.548-.017-22.282 16.193 8.526 26.21-22.299-16.193zm46.885 46.885 8.491-26.193-22.299-16.193 27.548-.018 8.508-26.209 8.525 26.209 27.548-.017-22.282 16.193 8.526 26.21-22.299-16.193zm91.448 46.868-22.299-16.193-22.265 16.209 8.491-26.192-22.3-16.193 27.548-.018 8.508-26.21 8.525 26.21 27.548-.017-22.282 16.193z" fill="#0052b4"/><path d="m512 0h-490.143.001l490.142 490.143z" fill="#ffda44"/><g fill="#f0f0f0"><path d="m9.765 43.63 22.282-16.192-27.548.016-4.499-13.833v42.937l18.291 13.282z"/><path d="m56.649 90.515 22.284-16.193-27.548.017-8.526-26.21-8.508 26.21-27.548.018 22.3 16.192-8.491 26.193 22.265-16.21 22.298 16.193z"/><path d="m103.535 137.4 22.282-16.193-27.548.017-8.524-26.209-8.51 26.209-27.546.018 22.298 16.192-8.49 26.193 22.264-16.21 22.299 16.193z"/><path d="m150.42 184.285 22.282-16.193-27.548.017-8.525-26.209-8.508 26.209-27.548.017 22.299 16.193-8.49 26.193 22.264-16.21 22.299 16.192z"/><path d="m197.305 231.17 22.282-16.192-27.548.016-8.525-26.21-8.508 26.21-27.548.018 22.299 16.192-8.49 26.193 22.264-16.209 22.3 16.192z"/><path d="m244.189 278.055 22.284-16.193-27.548.017-8.526-26.209-8.508 26.209-27.547.018 22.299 16.192-8.492 26.193 22.266-16.21 22.298 16.193z"/><path d="m291.075 324.94 22.282-16.193-27.547.017-8.525-26.209-8.508 26.209-27.548.018 22.298 16.192-8.49 26.192 22.264-16.209 22.299 16.193z"/><path d="m337.96 371.824 22.282-16.191-27.548.017-8.525-26.21-8.508 26.21-27.548.016 22.299 16.193-8.49 26.193 22.264-16.21 22.299 16.192z"/><path d="m384.845 418.71 22.282-16.192-27.548.016-8.525-26.21-8.508 26.21-27.548.018 22.3 16.192-8.491 26.193 22.265-16.21 22.299 16.192z"/><path d="m426.464 449.419-8.524-26.21-8.509 26.21-27.548.018 22.3 16.192-8.492 26.193 22.266-16.21 22.298 16.193-8.526-26.21 22.283-16.193z"/><path d="m473.35 496.304-8.525-26.209-8.509 26.209-27.547.018 21.59 15.678h28.916l21.622-15.713z"/></g></svg>