<svg enable-background="new 0 0 512.006 512.006" viewBox="0 0 512.006 512.006" xmlns="http://www.w3.org/2000/svg"><path d="m.003.017h512v511.989h-512z" fill="#d80027"/><path d="m215.866 256.008-215.863 215.856v-431.728z" fill="#6da544"/><path d="m512.003 40.136v431.728l-215.864-215.856z" fill="#6da544"/><path d="m512.003 40.136-215.864 215.872 215.864 215.856v40.136h-40.125l-215.875-215.873-215.875 215.873h-40.125v-40.136l215.863-215.856-215.863-215.872v-40.136h40.125l215.875 215.873 215.875-215.873h40.125z" fill="#0052b4"/><path d="m512.003 40.136-215.864 215.872 215.864 215.856v40.136h-40.125l-215.875-215.873-215.875 215.873h-40.125v-40.136l215.863-215.856-215.863-215.872v-40.136h40.125l215.875 215.873 215.875-215.873h40.125z" fill="#f0f0f0"/><circle cx="256.003" cy="256" fill="#f0f0f0" r="74.207"/><g fill="#d80027"><path d="m256.003 204.058 6.425 11.13h12.853l-6.426 11.13 6.426 11.131h-12.853l-6.425 11.13-6.426-11.13h-12.852l6.425-11.131-6.425-11.13h12.852z"/><path d="m223.339 256 6.426 11.13h12.852l-6.425 11.131 6.425 11.13h-12.852l-6.426 11.131-6.426-11.131h-12.853l6.427-11.13-6.427-11.131h12.853z"/><path d="m288.666 256 6.427 11.13h12.852l-6.427 11.131 6.427 11.13h-12.852l-6.427 11.131-6.425-11.131h-12.853l6.426-11.13-6.426-11.131h12.853z"/></g></svg>