<svg enable-background="new 0 0 512 512" viewBox="0 0 512 512" xmlns="http://www.w3.org/2000/svg"><path d="m0 0h512v512h-512z" fill="#d80027"/><path d="m320 173.714v100.57c0 48.991 128 48.991 128 0v-100.57z" fill="#f3f3f3"/><path d="m320 274.286c0 48.989 64 64 64 64s64-15.01 64-64.001v.001z" fill="#6da544"/><path d="m384 234.057-29.714 12.8v27.429l29.714 18.285 29.715-18.285v-27.429z" fill="#a2001d"/><path d="m354.282 219.425h59.425v27.429h-59.425z" fill="#338af3"/><path d="m0 0h256v256h-256z" fill="#f0f0f0"/><path d="m0 152.001h104.001v104h48v-104h103.999v-48h-103.999v-104h-48v104h-104.001z" fill="#d80027"/><g fill="#0052b4"><path d="m203.46 166.958 52.54 52.54v-52.54z"/><path d="m166.957 166.958 89.043 89.043v-25.18l-63.863-63.863z"/><path d="m232.282 256.001-65.325-65.331v65.331z"/></g><path d="m166.957 166.958 89.043 89.043v-25.18l-63.863-63.863z" fill="#f0f0f0"/><path d="m166.957 166.958 89.043 89.043v-25.18l-63.863-63.863z" fill="#d80027"/><path d="m40.151 166.958-40.151 40.15v-40.15z" fill="#0052b4"/><path d="m89.041 178.281v77.718h-77.711z" fill="#0052b4"/><path d="m63.862 166.96-63.862 63.862v25.179l89.041-89.041z" fill="#d80027"/><path d="m52.54 89.045-52.54-52.541v52.541z" fill="#0052b4"/><path d="m89.043 89.045-89.043-89.044v25.18l63.863 63.864z" fill="#0052b4"/><path d="m23.718.001 65.325 65.331v-65.331z" fill="#0052b4"/><path d="m89.043 89.045-89.043-89.044v25.18l63.863 63.864z" fill="#f0f0f0"/><path d="m89.043 89.045-89.043-89.044v25.18l63.863 63.864z" fill="#d80027"/><path d="m215.849 89.045 40.151-40.151v40.151z" fill="#0052b4"/><path d="m166.959 77.722v-77.72h77.711z" fill="#0052b4"/><path d="m192.138 89.042 63.862-63.862v-25.179l-89.041 89.041z" fill="#d80027"/></svg>