<svg enable-background="new 0 0 512 512" viewBox="0 0 512 512" xmlns="http://www.w3.org/2000/svg"><path d="m0 0h512v512h-512z" fill="#ffda44"/><path d="m0 170.615 512 310.781v-70.006l-238.768-141.593-273.232-169.181z"/><path d="m512 411.384v-69.997l-512-310.783v70.012" fill="#f0f0f0"/><g fill="#d80027"><path d="m304.224 237.452c0 26.633-21.591 48.224-48.224 48.224s-48.224-21.591-48.224-48.224c0-8.304 2.099-16.118 5.796-22.94-10.465 10.702-16.925 25.337-16.925 41.488 0 32.779 26.573 59.353 59.353 59.353s59.353-26.574 59.353-59.353c0-16.15-6.46-30.786-16.925-41.488 3.697 6.822 5.796 14.636 5.796 22.94z"/><path d="m244.87 181.805h22.258v111.282h-22.258z"/><path d="m293.095 204.066h-74.191c0 5.122 4.461 9.274 9.583 9.274h-.309c0 5.122 4.153 9.274 9.274 9.274 0 5.122 4.153 9.274 9.274 9.274h18.548c5.122 0 9.274-4.152 9.274-9.274 5.122 0 9.274-4.152 9.274-9.274h-.308c5.119 0 9.581-4.151 9.581-9.274z"/><path d="m204.065 300.511h103.869v22.258h-103.869z"/><path d="m278.261 307.935h44.514v22.258h-44.514z"/><path d="m189.229 307.935h44.514v22.258h-44.514z"/></g></svg>