<svg xmlns="http://www.w3.org/2000/svg" viewBox="0 0 512 512"><path fill="#A2001D" d="M0 0H512V512H0z"/><path fill="#6DA544" d="M150.261 345.043H512V512H150.261z"/><path d="M19.478 461.52l27.826-49.692L75.13 461.52l27.826-49.692 27.826 49.692L102.96 512h47.303V0H102.96l27.825 49.688-27.826 50.483-27.826-50.483-27.826 50.483L19.48 49.688 47.303 0H0v512h47.303l-27.825-50.48zm83.48-86.794l-27.826-50.483-27.826 50.483-27.826-50.483 27.826-49.692 27.826 49.692 27.826-49.692 27.826 49.692-27.826 50.483zM47.304 137.274l27.826 49.692 27.826-49.692 27.826 49.692-27.826 50.483-27.826-50.483-27.826 50.483-27.826-50.483 27.826-49.692z" fill="#F0F0F0"/><path fill="#F0F0F0" d="M75.132 461.52L47.307 512 102.955 512z"/><path fill="#F0F0F0" d="M75.132 49.688L102.957 0 47.307 0z"/><g fill="#A2001D"><path d="M130.784 186.966L102.958 137.274 75.132 186.966 102.958 237.449z"/><path d="M47.304 237.449L75.132 186.966 47.304 137.274 19.478 186.966z"/><path d="M102.958 274.551L75.132 324.244 102.958 374.726 130.784 324.244z"/><path d="M19.478 324.244L47.304 374.726 75.132 324.244 47.304 274.551z"/><path d="M130.784 461.52L102.958 411.828 75.132 461.52 102.955 512 102.96 512z"/><path d="M75.132 461.52L47.304 411.828 19.478 461.52 47.303 512 47.307 512z"/><path d="M75.132 49.688L102.958 100.172 130.784 49.688 102.96 0 102.957 0z"/><path d="M19.478 49.688L47.304 100.172 75.132 49.688 47.307 0 47.303 0z"/></g></svg>