<svg enable-background="new 0 0 512 512" viewBox="0 0 512 512" xmlns="http://www.w3.org/2000/svg"><path d="m0 0h512v512h-512z" fill="#6da544"/><g fill="#ffda44"><path d="m355.958 339 5.211 10.897 11.771-2.719-5.272 10.87 9.466 7.506-11.784 2.655.032 12.081-9.424-7.558-9.424 7.558.032-12.081-11.785-2.655 9.466-7.506-5.271-10.87 11.77 2.719z"/><path d="m307.472 223.387 5.211 10.898 11.77-2.721-5.27 10.871 9.464 7.506-11.784 2.655.033 12.081-9.424-7.558-9.425 7.558.033-12.081-11.784-2.655 9.464-7.506-5.271-10.871 11.77 2.721z"/><path d="m355.958 157.322 5.211 10.899 11.771-2.721-5.271 10.871 9.465 7.505-11.784 2.656.032 12.081-9.424-7.559-9.424 7.559.032-12.081-11.784-2.656 9.465-7.505-5.271-10.871 11.77 2.721z"/><path d="m398.31 206.87 5.212 10.899 11.77-2.721-5.271 10.871 9.465 7.505-11.784 2.656.033 12.081-9.425-7.558-9.424 7.558.033-12.081-11.785-2.656 9.465-7.505-5.271-10.871 11.77 2.721z"/><path d="m368.026 264.677 4.1 12.618h13.266l-10.733 7.798 4.1 12.616-10.733-7.798-10.733 7.798 4.1-12.616-10.733-7.798h13.266z"/><path d="m274.97 310.096c-29.646 0-53.678-24.032-53.678-53.678s24.032-53.678 53.678-53.678c9.244 0 17.94 2.337 25.534 6.451-11.912-11.649-28.201-18.838-46.18-18.838-36.486 0-66.064 29.578-66.064 66.065s29.578 66.065 66.064 66.065c17.978 0 34.268-7.189 46.18-18.838-7.594 4.114-16.291 6.451-25.534 6.451z"/><path d="m183.83 140.806c-5.712-9.87-16.378-16.516-28.602-16.516-12.223 0-22.89 6.645-28.602 16.516z"/><path d="m183.939 140.997-28.712 28.712-28.712-28.712c-2.745 4.816-4.32 10.385-4.32 16.325 0 18.244 14.789 33.032 33.032 33.032s33.032-14.789 33.032-33.032c.001-5.94-1.575-11.509-4.32-16.325z"/></g><path d="m146.97 161.451v27.863c2.639.679 5.406 1.041 8.258 1.041s5.619-.362 8.258-1.041v-27.863z" fill="#a2001d"/></svg>