<svg enable-background="new 0 0 512 512" viewBox="0 0 512 512" xmlns="http://www.w3.org/2000/svg"><path d="m0 0h512v512h-512z" fill="#d80027"/><path d="m0 256h211.478v128h-211.478z" fill="#6da544"/><path d="m300.522 256h211.478v128h-211.478z" fill="#6da544"/><path d="m0 0v.006 127.994h211.478v-127.994h89.044v127.994h211.478v-127.994-.006z" fill="#0052b4"/><path d="m300.522 128h211.478v128h-211.478z" fill="#f0f0f0"/><path d="m0 128h211.478v128h-211.478z" fill="#f0f0f0"/><g fill="#ffda44"><path d="m300.522 511.994h-89.044v-127.994h-211.478v127.994.006h512v-.006-127.994h-211.478z"/><path d="m161.39 33.566 7.554 23.248h24.447l-19.776 14.371 7.554 23.249-19.779-14.368-19.777 14.368 7.556-23.249-19.778-14.371h24.446z"/></g></svg>