<svg enable-background="new 0 0 512 512" viewBox="0 0 512 512" xmlns="http://www.w3.org/2000/svg"><path d="m.002.002h511.998v511.998h-511.998z" fill="#2e52b2"/><g fill="#f0f0f0"><path d="m383.998 156.706 5.283 16.254h17.089l-13.826 10.045 5.282 16.253-13.828-10.045-13.825 10.045 5.281-16.253-13.825-10.045h17.088z"/><path d="m313.79 185.787 15.228 7.759 12.084-12.084-2.674 16.88 15.228 7.758-16.879 2.673-2.674 16.881-7.76-15.228-16.878 2.673 12.085-12.083z"/><path d="m284.709 255.996 16.253-5.281.001-17.088 10.044 13.824 16.254-5.282-10.045 13.827 10.045 13.827-16.254-5.282-10.044 13.827v-17.09z"/><path d="m313.79 326.204 7.759-15.229-12.084-12.083 16.88 2.674 7.758-15.227 2.674 16.878 16.879 2.673-15.228 7.76 2.674 16.88-12.084-12.086z"/><path d="m383.998 355.285-5.281-16.253h-17.091l13.828-10.046-5.281-16.253 13.825 10.044 13.828-10.044-5.282 16.253 13.826 10.046h-17.089z"/><path d="m454.207 326.204-15.229-7.757-12.083 12.083 2.673-16.88-15.227-7.758 16.879-2.675 2.675-16.878 7.757 15.227 16.88-2.674-12.086 12.085z"/><path d="m483.288 255.996-16.254 5.282v17.09l-10.045-13.828-16.253 5.283 10.045-13.827-10.045-13.827 16.253 5.282 10.045-13.824v17.088z"/><path d="m454.207 185.788-7.757 15.228 12.082 12.083-16.88-2.673-7.757 15.228-2.675-16.881-16.879-2.674 15.227-7.757-2.673-16.879 12.084 12.083z"/><path d="m255.999 0v48.896l-40.147 40.147h40.147v77.913h-52.536l52.536 52.535v36.508h-23.719l-65.324-65.335v65.335h-77.913v-77.724l-77.712 77.724h-11.331v-48.896l40.147-40.147h-40.147v-77.913h52.535l-52.535-52.535v-36.508h23.719l65.324 65.335v-65.335h77.913v77.723l77.712-77.723z"/></g><path d="m0 152h104v103.999h48v-103.999h103.999v-48h-103.999v-104h-48v104h-104z" fill="#d80027"/><path d="m166.956 166.956 89.043 89.043v-25.18l-63.863-63.863z" fill="#0052b4"/><path d="m166.956 166.956 89.043 89.043v-25.18l-63.863-63.863z" fill="#f0f0f0"/><path d="m166.956 166.956 89.043 89.043v-25.18l-63.863-63.863z" fill="#d80027"/><path d="m63.862 166.958-63.862 63.862v25.179l89.041-89.041z" fill="#d80027"/><path d="m89.043 89.043-89.043-89.043v25.18l63.863 63.863z" fill="#0052b4"/><path d="m89.043 89.043-89.043-89.043v25.18l63.863 63.863z" fill="#f0f0f0"/><path d="m89.043 89.043-89.043-89.043v25.18l63.863 63.863z" fill="#d80027"/><path d="m192.137 89.041 63.862-63.862v-25.179l-89.041 89.041z" fill="#d80027"/></svg>