<svg enable-background="new 0 0 512 512" viewBox="0 0 512 512" xmlns="http://www.w3.org/2000/svg"><path d="m0 0h512v512h-512z" fill="#d80027"/><g fill="#ffda44"><path d="m167.619 167.43 19.541 60.143h63.239l-51.161 37.171 19.542 60.143-51.161-37.17-51.162 37.17 19.542-60.143-51.162-37.171h63.239z"/><path d="m290.787 367.465-19.187-13.94-19.184 13.939 7.327-22.553-19.185-13.94h23.716l7.326-22.553 7.331 22.553h23.713l-19.185 13.939z"/><path d="m340.837 298.576h-23.714l-7.329 22.554-7.327-22.553-23.716-.001 19.187-13.94-7.329-22.552 19.187 13.937 19.185-13.938-7.329 22.553z"/><path d="m340.837 213.426-19.185 13.94 7.328 22.551-19.184-13.936-19.187 13.938 7.329-22.555-19.186-13.938 23.715-.001 7.329-22.555 7.327 22.555z"/><path d="m290.787 144.536-7.327 22.555 19.184 13.938-23.712.001-7.33 22.556-7.328-22.557-23.714.002 19.185-13.941-7.329-22.555 19.184 13.941z"/></g></svg>