<svg xmlns="http://www.w3.org/2000/svg" viewBox="0 0 512.006 512.006"><path fill="#F0F0F0" d="M0.003 0.017H512.003V512.006H0.003z"/><path fill="#D80027" d="M0.003 322.794H211.481V512H0.003z"/><path fill="#0052B4" d="M0.003 0H211.481V189.229H0.003z"/><path fill="#D80027" d="M300.525 0H512.0029999999999V189.229H300.525z"/><path fill="#0052B4" d="M300.525 322.794H512.0029999999999V512H300.525z"/><path d="M320.003 256.006c0 35.347-28.653 64-64 64-35.346 0-64-28.653-64-64s64-64 64-64 64 28.653 64 64z" fill="#496E2D"/><path d="M192.003 256.006c0-35.347 28.654-64 64-64 35.347 0 64 28.653 64 64" fill="#0052B4"/><path d="M220.003 224.006v40.001c0 19.882 16.118 36 36 36s36-16.118 36-36v-40.001h-72z" fill="#D80027"/></svg>