<svg xmlns="http://www.w3.org/2000/svg" viewBox="0 0 512 512"><path fill="#FFDA44" d="M0 0H512V256H0z"/><path fill="#0052B4" d="M0 256H512V384.01099999999997H0z"/><path fill="#D80027" d="M0 384.011H512V512H0z"/><circle cx="256" cy="256" r="89.043" fill="#FFDA44"/><path d="M256 311.651c-30.687 0-55.652-24.966-55.652-55.652v-33.391c0-30.687 24.966-55.652 55.652-55.652s55.652 24.966 55.652 55.652v33.391c0 30.686-24.965 55.652-55.652 55.652z" fill="#338AF3"/><path d="M345.043 122.434H278.26c0-12.294-9.967-22.261-22.261-22.261s-22.261 9.967-22.261 22.261h-66.783c0 12.295 10.709 22.261 23.002 22.261h-.741c0 12.295 9.966 22.261 22.261 22.261 0 12.295 9.966 22.261 22.261 22.261h44.522c12.295 0 22.261-9.966 22.261-22.261 12.295 0 22.261-9.966 22.261-22.261h-.741c12.294 0 23.002-9.967 23.002-22.261z"/></svg>