<svg xmlns="http://www.w3.org/2000/svg" viewBox="0 0 512 512"><path fill="#F0F0F0" d="M0 0.006H512V511.99499999999995H0z"/><path fill="#D80027" d="M0 0H512V170.663H0z"/><path d="M0 341.337H512V512H0z"/><path d="M345.043 230.029H278.26c0-12.294-9.967-22.261-22.261-22.261s-22.261 9.967-22.261 22.261h-66.783c0 12.295 10.709 22.261 23.003 22.261h-.742c0 12.295 9.966 22.261 22.261 22.261 0 12.295 9.966 22.261 22.261 22.261h44.522c12.295 0 22.261-9.966 22.261-22.261 12.295 0 22.261-9.966 22.261-22.261h-.741c12.294 0 23.002-9.966 23.002-22.261z" fill="#FF9811"/></svg>