<svg enable-background="new 0 0 512 512" viewBox="0 0 512 512" xmlns="http://www.w3.org/2000/svg"><path d="m0 0h512v512h-512z" fill="#0052b4"/><g fill="#ffda44"><path d="m256 105.739 7.993 24.598h25.862l-20.924 15.202 7.993 24.597-20.924-15.201-20.924 15.201 7.993-24.597-20.924-15.202h25.862z"/><path d="m149.749 149.75 23.045 11.74 18.289-18.286-4.047 25.545 23.045 11.741-25.545 4.046-4.046 25.545-11.743-23.045-25.543 4.047 18.287-18.289z"/><path d="m105.739 256 24.597-7.993.001-25.862 15.202 20.924 24.597-7.993-15.201 20.924 15.201 20.924-24.597-7.992-15.202 20.923v-25.862z"/><path d="m149.749 362.251 11.741-23.045-18.286-18.289 25.545 4.047 11.74-23.044 4.047 25.544 25.544 4.046-23.043 11.743 4.046 25.544-18.289-18.288z"/><path d="m256 406.261-7.993-24.597-25.862-.001 20.924-15.202-7.993-24.596 20.924 15.2 20.924-15.2-7.993 24.596 20.924 15.202h-25.863z"/><path d="m362.25 362.251-23.044-11.741-18.289 18.287 4.047-25.546-23.044-11.74 25.544-4.047 4.047-25.544 11.74 23.044 25.545-4.047-18.287 18.29z"/><path d="m406.261 256-24.598 7.993v25.862l-15.202-20.924-24.596 7.993 15.2-20.924-15.2-20.924 24.597 7.993 15.201-20.924v25.863z"/><path d="m362.25 149.75-11.74 23.044 18.287 18.289-25.546-4.047-11.74 23.044-4.047-25.544-25.544-4.047 23.044-11.74-4.047-25.544 18.29 18.286z"/></g></svg>