<svg enable-background="new 0 0 512 512" viewBox="0 0 512 512" xmlns="http://www.w3.org/2000/svg"><path d="m.002.002h511.998v511.998h-511.998z" fill="#2e52b2"/><path d="m319.999 196.57v73.141c0 48.99 64 64.001 64 64.001s64-15.01 64-64.001v-73.141l-64-18.285z" fill="#f3f3f3"/><path d="m447.998 201.142v-27.429h-127.999v27.429h54.856v54.858h-54.856v18.284.001h54.856v61.194c5.518 1.953 9.144 2.805 9.144 2.805s3.624-.852 9.141-2.805v-61.195h54.858v-.002-18.284h-54.858v-54.858h54.858z" fill="#d80027"/><path d="m255.999 0v48.896l-40.147 40.147h40.147v77.913h-52.536l52.536 52.535v36.508h-23.719l-65.324-65.335v65.335h-77.913v-77.724l-77.712 77.724h-11.331v-48.896l40.147-40.147h-40.147v-77.913h52.535l-52.535-52.535v-36.508h23.719l65.324 65.335v-65.335h77.913v77.723l77.712-77.723z" fill="#f0f0f0"/><path d="m0 152h104v103.999h48v-103.999h103.999v-48h-103.999v-104h-48v104h-104z" fill="#d80027"/><path d="m166.956 166.956 89.043 89.043v-25.18l-63.863-63.863z" fill="#0052b4"/><path d="m166.956 166.956 89.043 89.043v-25.18l-63.863-63.863z" fill="#f0f0f0"/><path d="m166.956 166.956 89.043 89.043v-25.18l-63.863-63.863z" fill="#d80027"/><path d="m63.862 166.958-63.862 63.862v25.179l89.041-89.041z" fill="#d80027"/><path d="m89.043 89.043-89.043-89.043v25.18l63.863 63.863z" fill="#0052b4"/><path d="m89.043 89.043-89.043-89.043v25.18l63.863 63.863z" fill="#f0f0f0"/><g fill="#d80027"><path d="m89.043 89.043-89.043-89.043v25.18l63.863 63.863z"/><path d="m192.137 89.041 63.862-63.862v-25.179l-89.041 89.041z"/></g></svg>