<svg enable-background="new 0 0 512 512" viewBox="0 0 512 512" xmlns="http://www.w3.org/2000/svg"><path d="m0 0h512v512h-512z" fill="#0052b4"/><path d="m413.681 293.101v7.421h-59.363v-7.421h-22.26v29.682h14.841v7.42h74.202v-7.42h14.841v-29.682z" fill="#ffda44"/><path d="m332.058 181.797v81.623c0 39.759 51.942 51.942 51.942 51.942s51.942-12.182 51.942-51.942v-81.623z" fill="#338af3"/><path d="m383.997 242.68c-12.985 0-12.985 11.873-25.97 11.873s-12.985-11.873-25.97-11.873v20.777c12.985 0 12.985 11.873 25.97 11.873s12.985-11.873 25.97-11.873c12.986 0 12.986 11.873 25.973 11.873 12.986 0 12.986-11.873 25.973-11.873v-20.777c-12.986 0-12.986 11.873-25.973 11.873-12.986-.001-12.986-11.873-25.973-11.873z" fill="#f3f3f3"/><path d="m383.997 201.09c-12.985 0-12.985 11.873-25.97 11.873s-12.985-11.873-25.97-11.873v20.777c12.985 0 12.985 11.873 25.97 11.873s12.985-11.873 25.97-11.873c12.986 0 12.986 11.873 25.973 11.873 12.986 0 12.986-11.873 25.973-11.873v-20.777c-12.986 0-12.986 11.873-25.973 11.873-12.986-.001-12.986-11.873-25.973-11.873z" fill="#f3f3f3"/><path d="m256 0v48.896l-40.147 40.147h40.147v77.914h-52.536l52.536 52.535v36.508h-23.719l-65.324-65.336v65.336h-77.914v-77.724l-77.712 77.724h-11.331v-48.896l40.147-40.147h-40.147v-77.914h52.536l-52.536-52.535v-36.508h23.719l65.324 65.336v-65.336h77.914v77.724l77.712-77.724z" fill="#f0f0f0"/><path d="m0 152.001h103.999v103.999h48v-103.999h104.001v-48h-104.001v-104.001h-48v104.001h-103.999z" fill="#d80027"/><path d="m166.957 166.957 89.043 89.043v-25.18l-63.863-63.863z" fill="#0052b4"/><path d="m166.957 166.957 89.043 89.043v-25.18l-63.863-63.863z" fill="#f0f0f0"/><path d="m166.957 166.957 89.043 89.043v-25.18l-63.863-63.863z" fill="#d80027"/><path d="m63.862 166.959-63.862 63.862v25.179l89.041-89.041z" fill="#d80027"/><path d="m89.043 89.043-89.043-89.043v25.18l63.863 63.863z" fill="#0052b4"/><path d="m89.043 89.043-89.043-89.043v25.18l63.863 63.863z" fill="#f0f0f0"/><g fill="#d80027"><path d="m89.043 89.043-89.043-89.043v25.18l63.863 63.863z"/><path d="m192.138 89.041 63.862-63.862v-25.179l-89.041 89.041z"/></g></svg>