<svg enable-background="new 0 0 512 512" viewBox="0 0 512 512" xmlns="http://www.w3.org/2000/svg"><path d="m0 0h512v512h-512z" fill="#338af3"/><g fill="#f0f0f0"><path d="m255.999 128 9.776 30.087h31.637l-25.595 18.595 9.776 30.087-25.594-18.593-25.593 18.593 9.777-30.087-25.595-18.595h31.636z"/><path d="m128 256.002 30.087-9.777v-31.637l18.595 25.595 30.087-9.776-18.595 25.595 18.595 25.592-30.087-9.777-18.595 25.595v-31.636z"/><path d="m256.001 384-9.776-30.087h-31.637l25.595-18.595-9.776-30.087 25.594 18.593 25.593-18.593-9.777 30.087 25.595 18.595h-31.636z"/><path d="m384 255.999-30.087 9.776v31.637l-18.595-25.595-30.087 9.776 18.593-25.594-18.593-25.593 30.087 9.777 18.595-25.595v31.636z"/></g></svg>