<svg enable-background="new 0 0 512 512" viewBox="0 0 512 512" xmlns="http://www.w3.org/2000/svg"><path d="m0 0h512v512h-512z" fill="#a2001d"/><path d="m256 256-211.478 211.478v-422.956z" fill="#496e2d"/><path d="m256 256 211.478 211.478h-422.956z" fill="#ffda44"/><path d="m467.478 44.522-211.478 211.478-211.478-211.478z" fill="#ffda44"/><path d="m467.478 44.522v422.956l-211.478-211.478z" fill="#496e2d"/><circle cx="256" cy="256" fill="#a2001d" r="64"/><path d="m255.999 192 14.346 44.153h46.429l-37.559 27.292 14.345 44.155-37.561-27.289-37.562 27.289 14.348-44.155-37.559-27.292h46.426z" fill="#ffda44"/><path d="m122.607 251.481c7.027 11.104 3.724 25.798-7.379 32.827-11.103 7.028-25.798 3.725-32.827-7.378-12.724-20.102-5.346-52.93-5.346-52.93s32.827 7.379 45.552 27.481z" fill="#ffda44"/><circle cx="108.867" cy="274.254" fill="#a2001d" r="11.895"/><g fill="#ffda44"><path d="m256 8.904 3.316 10.204h10.728l-8.679 6.306 3.316 10.203-8.681-6.306-8.68 6.306 3.316-10.203-8.68-6.306h10.728z"/><path d="m170.094 8.904 3.316 10.204h10.727l-8.679 6.306 3.316 10.203-8.68-6.306-8.679 6.306 3.315-10.203-8.68-6.306h10.728z"/><path d="m341.906 8.904 3.316 10.204h10.728l-8.679 6.306 3.315 10.203-8.68-6.306-8.679 6.306 3.315-10.203-8.679-6.306h10.727z"/><path d="m256 476.383 3.316 10.203h10.728l-8.679 6.306 3.316 10.204-8.681-6.307-8.68 6.307 3.316-10.204-8.68-6.306h10.728z"/><path d="m170.094 476.383 3.316 10.203h10.727l-8.679 6.306 3.316 10.204-8.68-6.307-8.679 6.307 3.315-10.204-8.68-6.306h10.728z"/><path d="m341.906 476.383 3.316 10.203h10.728l-8.679 6.306 3.315 10.204-8.68-6.307-8.679 6.307 3.315-10.204-8.679-6.306h10.727z"/></g></svg>