<svg enable-background="new 0 0 512 512" viewBox="0 0 512 512" xmlns="http://www.w3.org/2000/svg"><path d="m0 0h512v512h-512z" fill="#f0f0f0"/><g fill="#d80027"><path d="m129.855 92.753v-37.101h-37.102v37.101h-37.101v37.102h37.101v37.102h37.102v-37.102h37.102v-37.102z"/><path d="m419.247 92.753v-37.101h-37.102v37.101h-37.102v37.102h37.102v37.102h37.102v-37.102h37.101v-37.102z"/><path d="m129.855 382.145v-37.102h-37.102v37.102h-37.101v37.102h37.101v37.101h37.102v-37.101h37.102v-37.102z"/><path d="m419.247 382.145v-37.102h-37.102v37.102h-37.102v37.102h37.102v37.101h37.102v-37.101h37.101v-37.102z"/><path d="m224 0h64v512h-64z"/><path d="m0 224h512v64h-512z"/></g></svg>