<svg enable-background="new 0 0 512 512" viewBox="0 0 512 512" xmlns="http://www.w3.org/2000/svg"><path d="m0 0h512v512h-512z" fill="#f0f0f0"/><path d="m0 341.337h512v170.663h-512z" fill="#d80027"/><path d="m332.8 219.64v-25.6h8.534v-17.067h-17.067v8.534h-17.067v-8.534h-17.066v17.067h8.533v25.6h-17.067v-59.732h8.534v-17.067h-17.068v8.532h-8.532v-8.532h-17.068v8.532h-8.532v-8.532h-17.068v17.067h8.534v59.732h-17.067v-25.6h8.533v-17.067h-17.066v8.534h-17.067v-8.534h-17.067v17.067h8.533v25.6h-17.066v68.268h187.734v-68.268z" fill="#d80027"/><path d="m256 279.374c-14.138 0-25.6 11.462-25.6 25.6 0 11.145 7.125 20.624 17.066 24.137v35.596h-25.6v34.134h42.667v-69.73c9.942-3.514 17.066-12.993 17.066-24.137.001-14.138-11.461-25.6-25.599-25.6zm0 34.134c-4.714 0-8.534-3.821-8.534-8.534 0-4.714 3.82-8.534 8.534-8.534 4.713 0 8.534 3.82 8.534 8.534 0 4.713-3.821 8.534-8.534 8.534z" fill="#ffda44"/></svg>