<svg xmlns="http://www.w3.org/2000/svg" viewBox="0 0 512 512"><path fill="#F0F0F0" d="M0 0.008H512V511.99699999999996H0z"/><path fill="#6DA544" d="M0 0.002H512V170.66500000000002H0z"/><path fill="#D80027" d="M0 341.337H512V512H0z"/><path fill="#0052B4" d="M256 256.008L0 512 0 0z"/><path d="M326.492 209.623v55.652c0 34.08 44.522 44.523 44.522 44.523s44.522-10.443 44.522-44.523v-55.652h-89.044z" fill="#DEDDE0"/><path fill="#786145" d="M359.88 255.254H382.141V287.531H359.88z"/><path d="M393.275 243.014c0-12.295-9.966-22.261-22.261-22.261s-22.261 9.966-22.261 22.261c-6.147 0-11.13 4.983-11.13 11.13 0 6.147 4.983 11.13 11.13 11.13h44.522c6.147 0 11.13-4.983 11.13-11.13 0-6.147-4.982-11.13-11.13-11.13z" fill="#6DA544"/></svg>