<svg xmlns="http://www.w3.org/2000/svg" viewBox="0 0 512 512"><path fill="#F0F0F0" d="M0 0H512V512H0z"/><path fill="#338AF3" d="M0 0H170.663V512H0z"/><path fill="#338AF3" d="M341.337 0H512V512H341.337z"/><path fill="#ACABB1" d="M304.083 286.741L272.971 255.629 302.586 226.013 301.244 210.372 292.766 201.892 256 238.658 219.234 201.892 210.756 210.372 209.414 226.013 239.029 255.629 207.917 286.741 224.887 303.712 256 272.6 287.113 303.712z"/><path d="M301.255 210.373l-16.971 16.971c7.238 7.239 11.716 17.239 11.716 28.285 0 22.092-17.909 40.001-40.001 40.001s-40.001-17.909-40.001-40.001c0-11.045 4.478-21.045 11.716-28.285l-16.971-16.971C199.162 221.954 192 237.954 192 255.628c0 35.346 28.654 64 64 64s64-28.654 64-64c0-17.674-7.164-33.674-18.745-45.255z" fill="#6DA544"/></svg>