<svg enable-background="new 0 0 512 512" viewBox="0 0 512 512" xmlns="http://www.w3.org/2000/svg"><path d="m0 .006h512v511.989h-512z" fill="#f0f0f0"/><g fill="#338af3"><path d="m0 0h512v170.663h-512z"/><path d="m0 341.337h512v170.663h-512z"/><path d="m182.158 183.827 7.556 23.25h24.444l-19.776 14.369 7.554 23.249-19.778-14.37-19.777 14.37 7.554-23.249-19.777-14.369h24.445z"/><path d="m182.158 267.305 7.556 23.251h24.444l-19.776 14.368 7.554 23.249-19.778-14.369-19.777 14.369 7.554-23.249-19.777-14.368h24.445z"/><path d="m329.842 183.827 7.555 23.25h24.445l-19.777 14.369 7.554 23.249-19.777-14.37-19.778 14.37 7.554-23.249-19.776-14.369h24.444z"/><path d="m329.842 267.305 7.555 23.251h24.445l-19.777 14.368 7.554 23.249-19.777-14.369-19.778 14.369 7.554-23.249-19.776-14.368h24.444z"/><path d="m256 225.566 7.555 23.25h24.445l-19.777 14.369 7.555 23.249-19.778-14.369-19.778 14.369 7.555-23.249-19.777-14.369h24.445z"/></g></svg>