<svg enable-background="new 0 0 512 512" viewBox="0 0 512 512" xmlns="http://www.w3.org/2000/svg"><path d="m0 .006h512v511.989h-512z" fill="#f0f0f0"/><path d="m0 0h512v170.663h-512z" fill="#d80027"/><path d="m0 341.337h512v170.663h-512z" fill="#0052b4"/><path d="m317.44 188.55h-40.96l6.826-51.2 27.308-20.48 27.306 20.48v40.96z" fill="#338af3"/><path d="m194.56 188.55h40.96l-6.826-51.2-27.308-20.48-27.306 20.48v40.96z" fill="#338af3"/><path d="m283.306 188.55h-54.613v-51.2l27.307-20.48 27.306 20.48z" fill="#0052b4"/><path d="m174.08 178.311v112.639c0 26.821 12.956 50.674 32.938 65.625l14.336-3.587 18.091 18.2c5.348 1.102 10.884 1.683 16.554 1.683 5.64 0 11.147-.573 16.47-1.664l20.65-17.194 11.862 2.531c19.974-14.952 32.938-38.78 32.938-65.593v-112.64z" fill="#f0f0f0"/><g fill="#d80027"><path d="m174.08 178.31h32.768v32.768h-32.768z"/><path d="m239.616 178.31h32.768v32.768h-32.768z"/><path d="m305.152 178.31h32.768v32.768h-32.768z"/><path d="m206.848 211.078h32.768v32.768h-32.768z"/><path d="m272.384 211.078h32.768v32.768h-32.768z"/><path d="m174.08 243.834h32.768v32.768h-32.768z"/><path d="m206.848 276.602h32.768v32.768h-32.768z"/><path d="m239.616 243.834h32.768v32.768h-32.768z"/><path d="m305.152 243.834h32.768v32.768h-32.768z"/><path d="m272.384 276.602h32.768v32.768h-32.768z"/><path d="m239.616 309.37h32.768v32.768h-32.768z"/><path d="m206.848 309.375h-30.653c2.812 12.18 8.338 23.327 15.919 32.768h14.734z"/><path d="m305.152 342.143h14.734c7.581-9.441 13.106-20.588 15.919-32.768h-30.653z"/><path d="m206.848 342.143v14.298c9.531 7.17 20.667 12.314 32.768 14.78v-29.078z"/><path d="m272.384 342.143v29.078c12.101-2.466 23.237-7.61 32.768-14.78v-14.298z"/></g></svg>