<svg enable-background="new 0 0 512 512" viewBox="0 0 512 512" xmlns="http://www.w3.org/2000/svg"><path d="m0 0h512v512h-512z" fill="#f0f0f0"/><g fill="#0052b4"><path d="m352 200.575h-64.001l-31.999-55.425-31.998 55.425h-64.002l32.002 55.425-32.002 55.425h64.002l31.998 55.425 31.999-55.425h64.001l-32.002-55.425zm-56.686 55.425-19.656 34.048h-39.314l-19.658-34.048 19.657-34.048h39.314zm-39.314-68.097 7.316 12.672h-14.63zm-58.972 34.049h14.632l-7.316 12.672zm0 68.096 7.317-12.672 7.316 12.672zm58.972 34.049-7.315-12.672h14.63zm58.972-34.049h-14.632l7.317-12.672zm-14.632-68.096h14.632l-7.316 12.672z"/><path d="m0 32h512v64h-512z"/><path d="m0 416h512v64h-512z"/></g></svg>