<svg enable-background="new 0 0 512 512" viewBox="0 0 512 512" xmlns="http://www.w3.org/2000/svg"><path d="m0 0h512v512h-512z" fill="#f0f0f0"/><g fill="#0052b4"><path d="m461.664 199.866c-4.016 0-13.378-5.315-20.212-9.197-10.958-6.223-21.308-12.1-31.204-12.1s-20.246 5.877-31.204 12.1c-6.835 3.881-16.196 9.197-20.212 9.197s-13.378-5.315-20.211-9.197c-10.958-6.223-21.308-12.1-31.204-12.1s-20.246 5.877-31.204 12.1c-6.835 3.881-16.196 9.197-20.212 9.197s-13.378-5.315-20.212-9.197c-10.958-6.223-21.308-12.1-31.204-12.1s-20.246 5.877-31.204 12.1c-6.834 3.881-16.195 9.197-20.211 9.197s-13.378-5.315-20.212-9.197c-10.958-6.223-21.308-12.1-31.204-12.1s-20.246 5.877-31.204 12.1c-6.835 3.881-16.196 9.197-20.212 9.197s-13.378-5.315-20.211-9.197c-10.562-5.997-20.557-11.657-30.127-12.061v22.332c4.437.746 12.847 5.516 19.131 9.086 10.958 6.223 21.308 12.1 31.204 12.1s20.246-5.877 31.204-12.1c6.835-3.881 16.196-9.197 20.212-9.197s13.378 5.315 20.212 9.197c10.958 6.223 21.308 12.1 31.204 12.1s20.246-5.877 31.204-12.1c6.834-3.881 16.195-9.197 20.211-9.197s13.378 5.315 20.212 9.197c10.958 6.223 21.308 12.1 31.204 12.1s20.246-5.877 31.204-12.1c6.835-3.881 16.196-9.197 20.212-9.197s13.378 5.315 20.211 9.197c10.958 6.223 21.308 12.1 31.204 12.1s20.246-5.877 31.204-12.1c6.835-3.881 16.196-9.197 20.212-9.197s13.378 5.315 20.212 9.197c10.958 6.223 21.308 12.1 31.204 12.1s20.246-5.877 31.204-12.1c6.284-3.57 14.694-8.34 19.131-9.086v-22.332c-9.57.404-19.565 6.064-30.125 12.061-6.83 3.882-16.19 9.197-20.207 9.197z"/><path d="m0 33.985c4.437.746 12.847 5.516 19.131 9.086 10.958 6.223 21.308 12.1 31.204 12.1s20.246-5.877 31.204-12.1c6.835-3.881 16.196-9.197 20.212-9.197s13.378 5.315 20.212 9.197c10.958 6.223 21.308 12.1 31.204 12.1s20.246-5.877 31.204-12.1c6.834-3.881 16.195-9.197 20.211-9.197s13.378 5.315 20.212 9.197c10.958 6.223 21.308 12.1 31.204 12.1s20.246-5.877 31.204-12.1c6.835-3.881 16.196-9.197 20.212-9.197s13.378 5.315 20.211 9.197c10.958 6.223 21.308 12.1 31.204 12.1s20.246-5.877 31.204-12.1c6.835-3.881 16.196-9.197 20.212-9.197s13.378 5.315 20.212 9.197c10.958 6.223 21.308 12.1 31.204 12.1s20.246-5.877 31.204-12.1c6.284-3.57 14.694-8.34 19.131-9.086v-22.334c-9.57.404-19.565 6.064-30.125 12.061-6.834 3.881-16.195 9.197-20.211 9.197s-13.378-5.315-20.212-9.197c-10.958-6.223-21.308-12.1-31.204-12.1s-20.246 5.877-31.204 12.1c-6.835 3.881-16.196 9.197-20.212 9.197s-13.378-5.315-20.211-9.197c-10.958-6.223-21.308-12.1-31.204-12.1s-20.246 5.877-31.204 12.1c-6.835 3.881-16.196 9.197-20.212 9.197s-13.378-5.315-20.212-9.197c-10.958-6.223-21.308-12.1-31.204-12.1s-20.246 5.877-31.204 12.1c-6.834 3.881-16.195 9.197-20.211 9.197s-13.378-5.315-20.212-9.197c-10.958-6.223-21.308-12.1-31.204-12.1s-20.246 5.877-31.204 12.1c-6.835 3.881-16.196 9.197-20.212 9.197s-13.378-5.315-20.211-9.197c-10.558-5.997-20.553-11.657-30.123-12.061z"/><path d="m461.664 88.562c-4.016 0-13.378-5.315-20.212-9.197-10.958-6.223-21.308-12.1-31.204-12.1s-20.246 5.877-31.204 12.1c-6.835 3.881-16.196 9.197-20.212 9.197s-13.378-5.315-20.211-9.197c-10.958-6.223-21.308-12.1-31.204-12.1s-20.246 5.877-31.204 12.1c-6.835 3.881-16.196 9.197-20.212 9.197s-13.378-5.315-20.212-9.197c-10.958-6.223-21.308-12.1-31.204-12.1s-20.246 5.877-31.204 12.1c-6.834 3.881-16.195 9.197-20.211 9.197s-13.378-5.315-20.212-9.197c-10.958-6.223-21.308-12.1-31.204-12.1s-20.246 5.877-31.204 12.1c-6.835 3.881-16.196 9.197-20.212 9.197s-13.378-5.315-20.211-9.197c-10.562-5.998-20.557-11.657-30.127-12.061v22.332c4.437.746 12.847 5.516 19.131 9.086 10.958 6.223 21.308 12.1 31.204 12.1s20.246-5.877 31.204-12.1c6.835-3.881 16.196-9.197 20.212-9.197s13.378 5.315 20.212 9.197c10.958 6.223 21.308 12.1 31.204 12.1s20.246-5.877 31.204-12.1c6.834-3.881 16.195-9.197 20.211-9.197s13.378 5.315 20.212 9.197c10.958 6.223 21.308 12.1 31.204 12.1s20.246-5.877 31.204-12.1c6.835-3.881 16.196-9.197 20.212-9.197s13.378 5.315 20.211 9.197c10.958 6.223 21.308 12.1 31.204 12.1s20.246-5.877 31.204-12.1c6.835-3.881 16.196-9.197 20.212-9.197s13.378 5.315 20.212 9.197c10.958 6.223 21.308 12.1 31.204 12.1s20.246-5.877 31.204-12.1c6.284-3.57 14.694-8.34 19.131-9.086v-22.332c-9.57.404-19.565 6.064-30.125 12.061-6.83 3.882-16.19 9.197-20.207 9.197z"/><path d="m512 122.956c-9.57.404-19.565 6.064-30.125 12.061-6.834 3.881-16.195 9.197-20.211 9.197s-13.378-5.315-20.212-9.197c-10.958-6.223-21.308-12.1-31.204-12.1s-20.246 5.877-31.204 12.1c-6.835 3.881-16.196 9.197-20.212 9.197s-13.378-5.315-20.211-9.197c-10.958-6.223-21.308-12.1-31.204-12.1s-20.246 5.877-31.204 12.1c-6.835 3.881-16.196 9.197-20.212 9.197s-13.378-5.315-20.212-9.197c-10.958-6.223-21.308-12.1-31.204-12.1s-20.246 5.877-31.204 12.1c-6.834 3.881-16.195 9.197-20.211 9.197s-13.378-5.315-20.212-9.197c-10.958-6.223-21.308-12.1-31.204-12.1s-20.246 5.877-31.204 12.1c-6.835 3.881-16.196 9.197-20.212 9.197s-13.378-5.315-20.211-9.197c-10.562-5.997-20.557-11.657-30.127-12.061v22.332c4.437.746 12.847 5.516 19.131 9.086 10.958 6.223 21.308 12.1 31.204 12.1s20.246-5.877 31.204-12.1c6.835-3.881 16.196-9.197 20.212-9.197s13.378 5.315 20.212 9.197c10.958 6.223 21.308 12.1 31.204 12.1s20.246-5.877 31.204-12.1c6.834-3.881 16.195-9.197 20.211-9.197s13.378 5.315 20.212 9.197c10.958 6.223 21.308 12.1 31.204 12.1s20.246-5.877 31.204-12.1c6.835-3.881 16.196-9.197 20.212-9.197s13.378 5.315 20.211 9.197c10.958 6.223 21.308 12.1 31.204 12.1s20.246-5.877 31.204-12.1c6.835-3.881 16.196-9.197 20.212-9.197s13.378 5.315 20.212 9.197c10.958 6.223 21.308 12.1 31.204 12.1s20.246-5.877 31.204-12.1c6.284-3.57 14.694-8.34 19.131-9.086v-22.332z"/><path d="m461.664 255.518c-4.016 0-13.378-5.315-20.212-9.197-10.958-6.223-21.308-12.1-31.204-12.1s-20.246 5.877-31.204 12.1c-6.835 3.881-16.196 9.197-20.212 9.197s-13.378-5.315-20.211-9.197c-10.958-6.223-21.308-12.1-31.204-12.1s-20.246 5.877-31.204 12.1c-6.835 3.881-16.196 9.197-20.212 9.197s-13.378-5.315-20.212-9.197c-10.958-6.223-21.308-12.1-31.204-12.1s-20.246 5.877-31.204 12.1c-6.834 3.881-16.195 9.197-20.211 9.197s-13.378-5.315-20.212-9.197c-10.958-6.223-21.308-12.1-31.204-12.1s-20.246 5.877-31.204 12.1c-6.835 3.881-16.196 9.197-20.212 9.197s-13.378-5.315-20.211-9.197c-10.562-5.997-20.557-11.657-30.127-12.061v22.332c4.437.746 12.847 5.516 19.131 9.086 10.958 6.223 21.308 12.1 31.204 12.1s20.246-5.877 31.204-12.1c6.835-3.881 16.196-9.197 20.212-9.197s13.378 5.315 20.212 9.197c10.958 6.223 21.308 12.1 31.204 12.1s20.246-5.877 31.204-12.1c6.834-3.881 16.195-9.197 20.211-9.197s13.378 5.315 20.212 9.197c10.958 6.223 21.308 12.1 31.204 12.1s20.246-5.877 31.204-12.1c6.835-3.881 16.196-9.197 20.212-9.197s13.378 5.315 20.211 9.197c10.958 6.223 21.308 12.1 31.204 12.1s20.246-5.877 31.204-12.1c6.835-3.881 16.196-9.197 20.212-9.197s13.378 5.315 20.212 9.197c10.958 6.223 21.308 12.1 31.204 12.1s20.246-5.877 31.204-12.1c6.284-3.57 14.694-8.34 19.131-9.086v-22.332c-9.57.404-19.565 6.064-30.125 12.061-6.83 3.882-16.19 9.197-20.207 9.197z"/><path d="m512 289.912c-9.57.404-19.565 6.064-30.125 12.061-6.834 3.881-16.195 9.197-20.211 9.197s-13.378-5.315-20.212-9.197c-10.958-6.223-21.308-12.1-31.204-12.1s-20.246 5.877-31.204 12.1c-6.835 3.881-16.196 9.197-20.212 9.197s-13.378-5.315-20.211-9.197c-10.958-6.223-21.308-12.1-31.204-12.1s-20.246 5.877-31.204 12.1c-6.835 3.881-16.196 9.197-20.212 9.197s-13.378-5.315-20.212-9.197c-10.958-6.223-21.308-12.1-31.204-12.1s-20.246 5.877-31.204 12.1c-6.834 3.881-16.195 9.197-20.211 9.197s-13.378-5.315-20.212-9.197c-10.958-6.223-21.308-12.1-31.204-12.1s-20.246 5.877-31.204 12.1c-6.835 3.881-16.196 9.197-20.212 9.197s-13.378-5.315-20.211-9.197c-10.562-5.997-20.557-11.657-30.127-12.061v22.332c4.437.746 12.847 5.516 19.131 9.086 10.958 6.223 21.308 12.1 31.204 12.1s20.246-5.877 31.204-12.1c6.835-3.881 16.196-9.197 20.212-9.197s13.378 5.315 20.212 9.197c10.958 6.223 21.308 12.1 31.204 12.1s20.246-5.877 31.204-12.1c6.834-3.881 16.195-9.197 20.211-9.197s13.378 5.315 20.212 9.197c10.958 6.223 21.308 12.1 31.204 12.1s20.246-5.877 31.204-12.1c6.835-3.881 16.196-9.197 20.212-9.197s13.378 5.315 20.211 9.197c10.958 6.223 21.308 12.1 31.204 12.1s20.246-5.877 31.204-12.1c6.835-3.881 16.196-9.197 20.212-9.197s13.378 5.315 20.212 9.197c10.958 6.223 21.308 12.1 31.204 12.1s20.246-5.877 31.204-12.1c6.284-3.57 14.694-8.34 19.131-9.086v-22.332z"/><path d="m512 345.564c-9.57.404-19.565 6.064-30.125 12.061-6.834 3.881-16.195 9.197-20.211 9.197s-13.378-5.315-20.212-9.197c-10.958-6.223-21.308-12.1-31.204-12.1s-20.246 5.877-31.204 12.1c-6.835 3.881-16.196 9.197-20.212 9.197s-13.378-5.315-20.211-9.197c-10.958-6.223-21.308-12.1-31.204-12.1s-20.246 5.877-31.204 12.1c-6.835 3.881-16.196 9.197-20.212 9.197s-13.378-5.315-20.212-9.197c-10.958-6.223-21.308-12.1-31.204-12.1s-20.246 5.877-31.204 12.1c-6.834 3.881-16.195 9.197-20.211 9.197s-13.378-5.315-20.212-9.197c-10.958-6.223-21.308-12.1-31.204-12.1s-20.246 5.877-31.204 12.1c-6.835 3.881-16.196 9.197-20.212 9.197s-13.378-5.315-20.211-9.197c-10.562-5.997-20.557-11.657-30.127-12.061v22.332c4.437.746 12.847 5.516 19.131 9.086 10.958 6.223 21.308 12.1 31.204 12.1s20.246-5.877 31.204-12.1c6.835-3.881 16.196-9.197 20.212-9.197s13.378 5.315 20.212 9.197c10.958 6.223 21.308 12.1 31.204 12.1s20.246-5.877 31.204-12.1c6.834-3.881 16.195-9.197 20.211-9.197s13.378 5.315 20.212 9.197c10.958 6.223 21.308 12.1 31.204 12.1s20.246-5.877 31.204-12.1c6.835-3.881 16.196-9.197 20.212-9.197s13.378 5.315 20.211 9.197c10.958 6.223 21.308 12.1 31.204 12.1s20.246-5.877 31.204-12.1c6.835-3.881 16.196-9.197 20.212-9.197s13.378 5.315 20.212 9.197c10.958 6.223 21.308 12.1 31.204 12.1s20.246-5.877 31.204-12.1c6.284-3.57 14.694-8.34 19.131-9.086v-22.332z"/><path d="m512 401.217c-9.57.404-19.565 6.064-30.125 12.061-6.834 3.881-16.195 9.197-20.211 9.197s-13.378-5.315-20.212-9.197c-10.958-6.223-21.308-12.1-31.204-12.1s-20.246 5.877-31.204 12.1c-6.835 3.881-16.196 9.197-20.212 9.197s-13.378-5.315-20.211-9.197c-10.958-6.223-21.308-12.1-31.204-12.1s-20.246 5.877-31.204 12.1c-6.835 3.881-16.196 9.197-20.212 9.197s-13.378-5.315-20.212-9.197c-10.958-6.223-21.308-12.1-31.204-12.1s-20.246 5.877-31.204 12.1c-6.834 3.881-16.195 9.197-20.211 9.197s-13.378-5.315-20.212-9.197c-10.958-6.223-21.308-12.1-31.204-12.1s-20.246 5.877-31.204 12.1c-6.835 3.881-16.196 9.197-20.212 9.197s-13.378-5.315-20.211-9.197c-10.562-5.998-20.557-11.657-30.127-12.061v22.332c4.437.746 12.847 5.516 19.131 9.086 10.958 6.223 21.308 12.1 31.204 12.1s20.246-5.877 31.204-12.1c6.835-3.881 16.196-9.197 20.212-9.197s13.378 5.315 20.212 9.197c10.958 6.223 21.308 12.1 31.204 12.1s20.246-5.877 31.204-12.1c6.834-3.881 16.195-9.197 20.211-9.197s13.378 5.315 20.212 9.197c10.958 6.223 21.308 12.1 31.204 12.1s20.246-5.877 31.204-12.1c6.835-3.881 16.196-9.197 20.212-9.197s13.378 5.315 20.211 9.197c10.958 6.223 21.308 12.1 31.204 12.1s20.246-5.877 31.204-12.1c6.835-3.881 16.196-9.197 20.212-9.197s13.378 5.315 20.212 9.197c10.958 6.223 21.308 12.1 31.204 12.1s20.246-5.877 31.204-12.1c6.284-3.57 14.694-8.34 19.131-9.086v-22.332z"/><path d="m512 456.869c-9.57.404-19.565 6.064-30.125 12.061-6.834 3.881-16.195 9.197-20.211 9.197s-13.378-5.315-20.212-9.197c-10.958-6.223-21.308-12.1-31.204-12.1s-20.246 5.877-31.204 12.1c-6.835 3.881-16.196 9.197-20.212 9.197s-13.378-5.315-20.211-9.197c-10.958-6.223-21.308-12.1-31.204-12.1s-20.246 5.877-31.204 12.1c-6.835 3.881-16.196 9.197-20.212 9.197s-13.378-5.315-20.212-9.197c-10.958-6.223-21.308-12.1-31.204-12.1s-20.246 5.877-31.204 12.1c-6.834 3.881-16.195 9.197-20.211 9.197s-13.378-5.315-20.212-9.197c-10.958-6.223-21.308-12.1-31.204-12.1s-20.246 5.877-31.204 12.1c-6.835 3.881-16.196 9.197-20.212 9.197s-13.378-5.315-20.211-9.197c-10.562-5.997-20.557-11.657-30.127-12.061v22.332c4.437.746 12.847 5.516 19.131 9.086 10.958 6.223 21.308 12.1 31.204 12.1s20.246-5.877 31.204-12.1c6.835-3.881 16.196-9.197 20.212-9.197s13.378 5.315 20.212 9.197c10.958 6.223 21.308 12.1 31.204 12.1s20.246-5.877 31.204-12.1c6.834-3.881 16.195-9.197 20.211-9.197s13.378 5.315 20.212 9.197c10.958 6.223 21.308 12.1 31.204 12.1s20.246-5.877 31.204-12.1c6.835-3.881 16.196-9.197 20.212-9.197s13.378 5.315 20.211 9.197c10.958 6.223 21.308 12.1 31.204 12.1s20.246-5.877 31.204-12.1c6.835-3.881 16.196-9.197 20.212-9.197s13.378 5.315 20.212 9.197c10.958 6.223 21.308 12.1 31.204 12.1s20.246-5.877 31.204-12.1c6.284-3.57 14.694-8.34 19.131-9.086v-22.332z"/></g><path d="m256 85.334c-.01 0-.019 0-.029 0z" fill="#f0f0f0"/><path d="m255.544 256h.456c0-.154 0-.303 0-.456-.152.152-.304.304-.456.456z" fill="#f0f0f0"/><path d="m278.261 256v-.001z" fill="#496e2d"/><path d="m350.609 168.812h66.782l-33.391 33.391z" fill="#6da544"/><path d="m376.576 194.783h14.84v40.812h-14.84z" fill="#a2001d"/><path d="m376.576 302.381h14.84v40.812h-14.84z" fill="#a2001d"/><path d="m428.522 280.116c0-12.295-9.966-22.261-22.261-22.261-5.703 0-10.901 2.146-14.84 5.672v-13.093h7.421v-14.84h-7.421v-7.421h-14.84v7.421h-7.421v14.84h7.421v13.093c-3.939-3.526-9.138-5.672-14.84-5.672-12.295 0-22.261 9.966-22.261 22.261 0 6.591 2.867 12.512 7.421 16.589v13.093h74.203v-13.094c4.551-4.076 7.418-9.996 7.418-16.588z" fill="#ffda44"/><path d="m406.261 272.696c-2.341 0-3.98 1.027-4.943 1.889l-9.898 8.861h-14.84l-9.898-8.861c-.962-.861-2.601-1.889-4.942-1.889-4.092 0-7.421 3.329-7.421 7.421 0 2.882 1.554 4.703 2.48 5.533l4.941 4.424v4.883h44.522v-4.884l4.941-4.424c.926-.829 2.48-2.651 2.48-5.533-.002-4.091-3.331-7.42-7.422-7.42z" fill="#d80027"/><path d="m0 0h256v256h-256z" fill="#f0f0f0"/><path d="m0 152.001h104.001v104h48v-104h103.999v-48h-103.999v-104h-48v104h-104.001z" fill="#d80027"/><path d="m203.46 166.958 52.54 52.54v-52.54z" fill="#0052b4"/><path d="m166.957 166.958 89.043 89.043v-25.18l-63.863-63.863z" fill="#0052b4"/><path d="m232.282 256.001-65.325-65.331v65.331z" fill="#0052b4"/><path d="m166.957 166.958 89.043 89.043v-25.18l-63.863-63.863z" fill="#f0f0f0"/><path d="m166.957 166.958 89.043 89.043v-25.18l-63.863-63.863z" fill="#d80027"/><path d="m40.151 166.958-40.151 40.15v-40.15z" fill="#0052b4"/><path d="m89.041 178.281v77.718h-77.711z" fill="#0052b4"/><path d="m63.862 166.96-63.862 63.862v25.179l89.041-89.041z" fill="#d80027"/><path d="m52.54 89.045-52.54-52.541v52.541z" fill="#0052b4"/><path d="m89.043 89.045-89.043-89.044v25.18l63.863 63.864z" fill="#0052b4"/><path d="m23.718.001 65.325 65.331v-65.331z" fill="#0052b4"/><path d="m89.043 89.045-89.043-89.044v25.18l63.863 63.864z" fill="#f0f0f0"/><path d="m89.043 89.045-89.043-89.044v25.18l63.863 63.864z" fill="#d80027"/><path d="m215.849 89.045 40.151-40.151v40.151z" fill="#0052b4"/><path d="m166.959 77.722v-77.72h77.711z" fill="#0052b4"/><path d="m192.138 89.042 63.862-63.862v-25.179l-89.041 89.041z" fill="#d80027"/></svg>