<svg enable-background="new 0 0 512 512" viewBox="0 0 512 512" xmlns="http://www.w3.org/2000/svg"><path d="m0 0h512v512h-512z" fill="#f0f0f0"/><path d="m0 0h512v170.663h-512z" fill="#a2001d"/><path d="m0 341.337h512v170.663h-512z"/><g fill="#496e2d"><path d="m208.152 242.758c-.111 0-.22.007-.331.009v-.009h-38.811c1.968-7.602 8.867-13.242 17.074-13.242v-26.483c-24.338 0-44.138 19.8-44.138 44.138v21.629.442h65.875.331c2.433 0 4.414 1.98 4.414 4.414v8.828h-88.275v26.483h114.757v-35.31c0-17.038-13.859-30.899-30.896-30.899z"/><path d="m274.359 282.483v-79.448h-26.483v105.93h44.138v-26.482z"/><path d="m362.635 282.484v-79.449h-26.483v79.449h-8.827v-26.483h-26.484v52.965h79.449v-26.482z"/></g></svg>