<svg enable-background="new 0 0 512 512" viewBox="0 0 512 512" xmlns="http://www.w3.org/2000/svg"><path d="m0 .006h512v511.989h-512z" fill="#f0f0f0"/><path d="m0 0h512v170.663h-512z" fill="#6da544"/><path d="m0 341.337h512v170.663h-512z" fill="#d80027"/><g fill="#f0f0f0"><path d="m44.522 155.826h22.261v30.049h-22.261z"/><path d="m0 155.826h22.261v30.049h-22.261z"/><path d="m89.043 155.826h22.261v30.049h-22.261z"/><path d="m133.565 155.826h22.261v30.049h-22.261z"/><path d="m178.087 155.826h22.261v30.049h-22.261z"/><path d="m222.609 155.826h22.261v30.049h-22.261z"/><path d="m267.13 155.826h22.261v30.049h-22.261z"/><path d="m311.652 155.826h22.261v30.049h-22.261z"/><path d="m356.174 155.826h22.261v30.049h-22.261z"/><path d="m400.696 155.826h22.261v30.049h-22.261z"/><path d="m445.217 155.826h22.261v30.049h-22.261z"/><path d="m489.739 155.826h22.261v30.049h-22.261z"/><path d="m44.522 326.678h22.261v29.492h-22.261z"/><path d="m0 326.678h22.261v29.492h-22.261z"/><path d="m89.043 326.678h22.261v29.492h-22.261z"/><path d="m133.565 326.678h22.261v29.492h-22.261z"/><path d="m178.087 326.678h22.261v29.492h-22.261z"/><path d="m222.609 326.678h22.261v29.492h-22.261z"/><path d="m267.13 326.678h22.261v29.492h-22.261z"/><path d="m311.652 326.678h22.261v29.492h-22.261z"/><path d="m356.174 326.678h22.261v29.492h-22.261z"/><path d="m400.696 326.678h22.261v29.492h-22.261z"/><path d="m445.217 326.678h22.261v29.492h-22.261z"/><path d="m489.739 326.678h22.261v29.492h-22.261z"/></g><path d="m319.746 204.8h-25.679c.213 2.822.333 5.669.333 8.534 0 18.986-4.745 37.388-13.018 50.488-2.552 4.04-6.841 9.746-12.582 13.595v-72.617h-25.6v72.615c-5.74-3.849-10.03-9.553-12.582-13.595-8.273-13.099-13.018-31.501-13.018-50.488 0-2.864.121-5.712.333-8.534h-25.679c-.165 2.808-.254 5.652-.254 8.534 0 52.636 28.112 93.866 64 93.866s64-41.23 64-93.866c0-2.88-.089-5.724-.254-8.532z" fill="#d80027"/></svg>