<svg xmlns="http://www.w3.org/2000/svg" viewBox="0 0 512 512"><path fill="#F0F0F0" d="M0 0H512V512H0z"/><path fill="#F0F0F0" d="M0 0H512V512H0z"/><path fill="#D80027" d="M301.255 256L512 45.255 512 0 466.745 0 256 210.745 45.255 0 0 0 0 45.255 210.745 256 0 466.745 0 512 45.255 512 256 301.255 466.745 512 512 512 512 466.745z"/><path fill="#FFDA44" d="M211.479 91.827L256 102.958 300.521 91.827 300.521 53.985 282.712 62.889 256 36.176 229.287 62.889 211.479 53.985z"/><path d="M211.479 91.827v27.827c0 34.079 44.521 44.521 44.521 44.521s44.521-10.443 44.521-44.521V91.827h-89.042z" fill="#D80027"/></svg>