<svg xmlns="http://www.w3.org/2000/svg" viewBox="0 0 512 512"><path fill="#F0F0F0" d="M0 0H512V512H0z"/><path d="M0 0H512V135.869H0z"/><path fill="#496E2D" d="M0 376.153H512V512H0z"/><path fill="#A2001D" d="M0 169.906H512V342.105H0z"/><path fill="#F0F0F0" d="M356.897 81.712L318.524 64 256 205.572 193.476 64 155.103 81.712 232.726 256 155.103 430.288 193.476 448 256 306.428 318.524 448 356.897 430.288 279.274 256z"/><path d="M282.063 98.404C267.208 82.18 256 72.855 256 72.855s-11.208 9.325-26.063 25.549v315.191C244.792 429.82 256 439.145 256 439.145s11.208-9.325 26.063-25.55V98.404z" fill="#F0F0F0"/><path d="M185.56 158.848v194.303c15.697 27.814 34.911 50.612 49.308 65.727V93.122c-14.397 15.114-33.611 37.911-49.308 65.726zm140.88 0c-15.697-27.814-34.911-50.612-49.308-65.726V418.88c14.397-15.116 33.611-37.914 49.308-65.727V158.848z" fill="#A2001D"/><path d="M326.44 158.848v194.303c15.892-28.161 28.176-61.46 28.176-97.151s-12.284-68.99-28.176-97.152zm-140.88 0v194.303c-15.892-28.161-28.176-61.46-28.176-97.151s12.284-68.99 28.176-97.152z"/></svg>