<svg xmlns="http://www.w3.org/2000/svg" viewBox="0 0 512 512"><path fill="#D80027" d="M0 0H512V512H0z"/><path fill="#FFDA44" d="M373.008 256L325.198 278.488 350.657 324.793 298.739 314.86 292.162 367.304 255.999 328.735 219.838 367.304 213.259 314.86 161.346 324.792 186.803 278.486 138.994 256 186.804 233.513 161.346 187.207 213.258 197.141 219.841 144.696 255.999 183.266 292.164 144.696 298.739 197.141 350.659 187.207 325.199 233.515z"/><circle cx="256" cy="256" r="72.815" fill="#D80027"/><path d="M219.592 256a52.18 52.18 0 0 0-5.195.26 41.433 41.433 0 0 0 9.737 26.487 72.99 72.99 0 0 1 14.068-23.292 51.727 51.727 0 0 0-18.61-3.455zm22.413 39.189a41.507 41.507 0 0 0 13.995 2.42c4.912 0 9.621-.857 13.995-2.42-2.384-9.357-7.307-17.711-13.995-24.274-6.688 6.564-11.611 14.918-13.995 24.274zm50.028-59.987c-7.195-12.436-20.63-20.811-36.033-20.811-15.401 0-28.838 8.375-36.033 20.811a72.353 72.353 0 0 1 36.033 9.79 72.337 72.337 0 0 1 36.033-9.79zm-18.237 24.254a72.992 72.992 0 0 1 14.069 23.292 41.434 41.434 0 0 0 9.738-26.487c-1.71-.17-3.442-.26-5.195-.26a51.703 51.703 0 0 0-18.612 3.455z" fill="#FFDA44"/></svg>