<svg enable-background="new 0 0 512 512" viewBox="0 0 512 512" xmlns="http://www.w3.org/2000/svg"><path d="m0 .008h512v511.989h-512z" fill="#0052b4"/><path d="m0 .002h512v128h-512z" fill="#ffda44"/><path d="m0 128h512v128h-512z" fill="#f0f0f0"/><path d="m0 256h512v128h-512z" fill="#d80027"/><path d="m256 256.008-256 255.992v-512z" fill="#6da544"/><g fill="#f0f0f0"><path d="m65.192 256c0-30.638 21.532-56.232 50.286-62.512-4.42-.965-9.005-1.488-13.714-1.488-35.347 0-64 28.653-64 64s28.653 64 64 64c4.71 0 9.295-.523 13.714-1.488-28.753-6.28-50.286-31.874-50.286-62.512z"/><path d="m114.773 201.143 3.404 10.477h11.015l-8.912 6.474 3.405 10.477-8.912-6.474-8.913 6.474 3.405-10.477-8.913-6.474h11.016z"/><path d="m114.773 228.571 3.404 10.477h11.015l-8.912 6.475 3.405 10.477-8.912-6.475-8.913 6.475 3.405-10.477-8.913-6.475h11.016z"/><path d="m114.773 256 3.404 10.477h11.015l-8.912 6.475 3.405 10.477-8.912-6.475-8.913 6.475 3.405-10.477-8.913-6.475h11.016z"/><path d="m114.773 283.429 3.404 10.477h11.015l-8.912 6.474 3.405 10.477-8.912-6.475-8.913 6.475 3.405-10.477-8.913-6.474h11.016z"/></g></svg>