<svg enable-background="new 0 0 512 512" viewBox="0 0 512 512" xmlns="http://www.w3.org/2000/svg"><path d="m0 0h512v512h-512z" fill="#d80027"/><path d="m512 0h-512v512" fill="#6da544"/><path d="m512 0v110.191l-401.798 401.798h-110.202v-110.18l401.798-401.798h47.215l.011-.011z" fill="#ffda44"/><path d="m62.967 511.991 449.033-449.017v-62.974h-62.975l-.009.009-449.016 449.031v62.951z"/><g fill="#f0f0f0"><path d="m178.452 288.791 19.177 9.771 15.217-15.219-3.366 21.258 19.177 9.77-21.258 3.367-3.367 21.257-9.77-19.176-21.257 3.367 15.217-15.218z"/><path d="m288.791 178.452 19.177 9.77 15.218-15.217-3.367 21.257 19.176 9.77-21.257 3.367-3.367 21.258-9.77-19.177-21.258 3.367 15.219-15.218z"/></g></svg>