<svg xmlns="http://www.w3.org/2000/svg" viewBox="0 0 512 512"><path fill="#FFFFFF" d="M0 0H512V512H0z"/><path d="M350.445 256c0 23.611-42.285 82.639-94.445 82.639S161.555 279.611 161.555 256c0-52.161 42.285-94.445 94.445-94.445s94.445 42.284 94.445 94.445z" fill="#D80027"/><path d="M350.445 256c0 52.161-42.285 94.445-94.445 94.445S161.555 308.161 161.555 256" fill="#0052B4"/><path transform="rotate(-45.001 377.052 335.321)" d="M359.346 323.512H394.76300000000003V347.119H359.346z"/><path transform="rotate(-45.001 335.313 377.057)" d="M317.608 365.247H353.024V388.85400000000004H317.608z"/><path transform="rotate(-45.001 427.14 385.387)" d="M409.434 373.576H444.851V397.183H409.434z"/><path transform="rotate(-45.001 385.4 427.145)" d="M367.696 415.334H403.112V438.94100000000003H367.696z"/><path transform="rotate(-45.001 402.096 360.354)" d="M384.391 348.543H419.807V372.15H384.391z"/><path transform="rotate(-45.001 360.356 402.1)" d="M342.652 390.291H378.068V413.898H342.652z"/><path transform="rotate(-134.999 381.216 130.772)" d="M333.994 118.967H428.43500000000006V142.574H333.994z"/><path transform="rotate(-134.999 335.319 134.942)" d="M317.609 123.137H353.02599999999995V146.744H317.609z"/><path transform="rotate(-134.999 377.046 176.684)" d="M359.337 164.879H394.753V188.486H359.337z"/><path transform="rotate(-134.999 385.382 84.866)" d="M367.672 73.062H403.08900000000006V96.669H367.672z"/><path transform="rotate(-134.999 427.132 126.597)" d="M409.423 114.792H444.839V138.399H409.423z"/><path transform="rotate(45.001 105.738 406.27)" d="M58.512 394.466H152.953V418.073H58.512z"/><path transform="rotate(45.001 151.643 402.089)" d="M133.929 390.285H169.346V413.89200000000005H133.929z"/><path transform="rotate(45.001 109.91 360.352)" d="M92.197 348.548H127.61500000000001V372.155H92.197z"/><path transform="rotate(45.001 155.829 356.186)" d="M108.603 344.383H203.04399999999998V367.99H108.603z"/><path transform="rotate(134.999 105.734 105.736)" d="M58.513 93.932H152.954V117.539H58.513z"/><path transform="rotate(134.999 130.774 130.783)" d="M83.553 118.979H177.994V142.586H83.553z"/><path transform="rotate(134.999 155.817 155.827)" d="M108.596 144.022H203.037V167.629H108.596z"/></svg>