<svg enable-background="new 0 0 512 512" viewBox="0 0 512 512" xmlns="http://www.w3.org/2000/svg"><path d="m.002.002h511.998v511.998h-511.998z" fill="#2e52b2"/><circle cx="383.998" cy="181.793" fill="#6da544" r="29.681"/><path d="m332.053 174.38h103.88v44.522h-103.88z" fill="#d80027"/><path d="m435.94 255.999v-.001z" fill="#496e2d"/><path d="m332.056 285.68v29.681h15.616c9.364 9.176 22.18 14.84 36.326 14.84 14.147 0 26.962-5.664 36.326-14.84h.776 14.84v-29.681z" fill="#ffda44"/><path d="m332.056 211.477v44.522c0 39.759 51.942 51.942 51.942 51.942s51.942-12.182 51.942-51.942v-44.522z" fill="#338af3"/><path d="m383.995 235.259c-12.985 0-12.985 11.873-25.969 11.873-12.985 0-12.985-11.873-25.969-11.873v20.777c12.985 0 12.985 11.873 25.969 11.873 12.985 0 12.985-11.873 25.969-11.873 12.986 0 12.986 11.873 25.973 11.873 12.986 0 12.986-11.873 25.973-11.873v-20.777c-12.986 0-12.986 11.873-25.973 11.873-12.986-.001-12.986-11.873-25.973-11.873z" fill="#f3f3f3"/><path d="m383.995 193.669c-12.985 0-12.985 11.873-25.969 11.873-12.985 0-12.985-11.873-25.969-11.873v20.777c12.985 0 12.985 11.873 25.969 11.873 12.985 0 12.985-11.873 25.969-11.873 12.986 0 12.986 11.873 25.973 11.873 12.986 0 12.986-11.873 25.973-11.873v-20.777c-12.986 0-12.986 11.873-25.973 11.873-12.986 0-12.986-11.873-25.973-11.873z" fill="#f3f3f3"/><path d="m255.999 0v48.896l-40.147 40.147h40.147v77.913h-52.536l52.536 52.535v36.508h-23.719l-65.324-65.335v65.335h-77.913v-77.724l-77.712 77.724h-11.331v-48.896l40.147-40.147h-40.147v-77.913h52.535l-52.535-52.535v-36.508h23.719l65.324 65.335v-65.335h77.913v77.723l77.712-77.723z" fill="#f0f0f0"/><path d="m0 152h104v103.999h48v-103.999h103.999v-48h-103.999v-104h-48v104h-104z" fill="#d80027"/><path d="m166.956 166.956 89.043 89.043v-25.18l-63.863-63.863z" fill="#0052b4"/><path d="m166.956 166.956 89.043 89.043v-25.18l-63.863-63.863z" fill="#f0f0f0"/><path d="m166.956 166.956 89.043 89.043v-25.18l-63.863-63.863z" fill="#d80027"/><path d="m63.862 166.958-63.862 63.862v25.179l89.041-89.041z" fill="#d80027"/><path d="m89.043 89.043-89.043-89.043v25.18l63.863 63.863z" fill="#0052b4"/><path d="m89.043 89.043-89.043-89.043v25.18l63.863 63.863z" fill="#f0f0f0"/><g fill="#d80027"><path d="m89.043 89.043-89.043-89.043v25.18l63.863 63.863z"/><path d="m192.137 89.041 63.862-63.862v-25.179l-89.041 89.041z"/></g></svg>