<svg enable-background="new 0 0 512 512" viewBox="0 0 512 512" xmlns="http://www.w3.org/2000/svg"><path d="m0 0h512v512h-512z" fill="#338af3"/><path d="m360.727 266.662h-209.454c0 14.461 12.594 26.182 27.054 26.182h-.872c0 14.461 11.721 26.182 26.182 26.182 0 14.461 11.721 26.182 26.182 26.182h52.363c14.461 0 26.182-11.721 26.182-26.182 14.461 0 26.182-11.721 26.182-26.182h-.872c14.458 0 27.053-11.722 27.053-26.182z" fill="#ffda44"/><path d="m328.504 232.423c0 40.042-32.461 72.504-72.504 72.504s-72.504-32.461-72.504-72.504" fill="#338af3"/><path d="m327.871 225.638-29.367 11.89 15.638 24.48-31.889-5.251-4.041 27.727-22.212-20.392-22.213 20.392-4.04-27.727-31.889 5.25 15.637-24.48-29.366-11.889 29.367-11.889-15.638-24.479 31.889 5.25 4.041-27.727 22.212 20.392 22.213-20.392 4.04 27.727 31.89-5.25-15.638 24.48z" fill="#ffda44"/></svg>