<svg xmlns="http://www.w3.org/2000/svg" viewBox="0 0 512 512"><path d="M0 0.007H512V511.996H0z"/><path fill="#D80027" d="M0 0.001H512V170.66400000000002H0z"/><path fill="#496E2D" d="M0 341.336H512V511.999H0z"/><path fill="#F0F0F0" d="M290.723 228.72L302.961 245.586 322.783 239.16 310.525 256.011 322.763 272.877 302.947 266.426 290.689 283.277 290.701 262.439 270.887 255.988 290.709 249.56z"/><path d="M257.318 298.157c-23.283 0-42.158-18.875-42.158-42.158s18.875-42.158 42.158-42.158a41.96 41.96 0 0 1 20.054 5.067c-9.355-9.148-22.15-14.796-36.269-14.796-28.655 0-51.886 23.231-51.886 51.887s23.23 51.886 51.887 51.886c14.119 0 26.913-5.648 36.269-14.796a41.965 41.965 0 0 1-20.055 5.068z" fill="#F0F0F0"/></svg>