<svg enable-background="new 0 0 512 512" viewBox="0 0 512 512" xmlns="http://www.w3.org/2000/svg"><path d="m0 0v256 256h512v-256-256z" fill="#d80027"/><path d="m390.587 217.82h-102.815l-31.772-97.782-31.772 97.782h-102.815l83.18 60.434-31.773 97.784 83.18-60.433 83.18 60.434-31.773-97.784zm-162.715 52.87 10.744-33.065h34.767l10.744 33.065v.001l-28.127 20.434zm39.077-52.87h-21.898l10.949-33.698zm34.024 40.631-6.767-20.826h35.433zm-83.179-20.827-6.767 20.826-28.665-20.826zm-7.305 86.568 10.949-33.697 17.716 12.871zm62.357-20.826 17.716-12.871 10.949 33.697z" fill="#ffda44"/></svg>