<svg xmlns="http://www.w3.org/2000/svg" viewBox="0 0 512 512"><path fill="#FFDA44" d="M0.007 0H511.996V512H0.007z"/><path fill="#0052B4" d="M0.001 0H170.66400000000002V512H0.001z"/><path fill="#D80027" d="M341.336 0H511.999V512H341.336z"/><path d="M322.781 215.063h-45.913c0-11.526-9.344-20.87-20.87-20.87-11.526 0-20.87 9.344-20.87 20.87h-45.913c0 11.347 9.885 20.548 21.232 20.548h-.683c0 11.349 9.199 20.549 20.549 20.549 0 10.047 7.216 18.397 16.747 20.182l-16.191 36.557a66.57 66.57 0 0 0 25.13 4.906 66.589 66.589 0 0 0 25.129-4.906l-16.191-36.557c9.531-1.784 16.747-10.134 16.747-20.182 11.35 0 20.548-9.2 20.548-20.549h-.685c11.35 0 21.234-9.199 21.234-20.548z" fill="#FF9811"/><path fill="#0052B4" d="M255.999 243.478L228.868 256 228.868 281.043 255.999 297.739 283.129 281.043 283.129 256z"/><path fill="#D80027" d="M228.863 230.957H283.124V256H228.863z"/></svg>