<svg enable-background="new 0 0 512 512" viewBox="0 0 512 512" xmlns="http://www.w3.org/2000/svg"><path d="m0 .006h512v511.989h-512z" fill="#ffda44"/><path d="m22.261 22.259h467.478v467.478h-467.478z" fill="#a2001d"/><path d="m194.164 182.931h123.672v-49.469l-24.735 12.367-37.101-37.101-37.101 37.101-24.735-12.367z" fill="#ffda44"/><path d="m367.304 257.133h-61.813c2.424-4.193 3.833-9.046 3.833-14.237 0-15.763-12.779-28.54-28.54-28.54-10.89 0-20.348 6.102-25.16 15.068-4.812-8.968-14.27-15.068-25.16-15.068-15.761 0-28.54 12.777-28.54 28.54 0 5.191 1.41 10.044 3.833 14.237h-61.063c0 18.914 16.474 34.247 35.388 34.247h-1.14c0 15.515 10.319 28.613 24.467 32.824l-27.797 27.797 26.234 26.234 37.213-37.215c1.458.533 2.966.962 4.523 1.253l-22.487 50.773c10.777 4.381 22.552 6.814 34.902 6.814 12.349 0 24.125-2.433 34.902-6.814l-22.487-50.773c1.558-.293 3.065-.72 4.522-1.253l37.214 37.215 26.234-26.234-27.797-27.797c14.148-4.21 24.468-17.308 24.468-32.824h-1.141c18.916.001 35.392-15.332 35.392-34.247z" fill="#ffda44"/><path d="m256 275.684-40.193 18.551v37.101l40.193 24.734 40.193-24.734v-37.101z" fill="#6da544"/><path d="m215.808 257.133h80.384v49.464h-80.384z" fill="#0052b4"/></svg>