<svg xmlns="http://www.w3.org/2000/svg" viewBox="0 0 512 512"><path fill="#0052B4" d="M0.007 0H511.996V512H0.007z"/><path fill="#A2001D" d="M0.001 0H170.66400000000002V512H0.001z"/><path fill="#A2001D" d="M341.336 0H511.999V512H341.336z"/><g fill="#FFDA44"><path d="M119.017 270.058H137.763V345.044H119.017z"/><path d="M44.031 270.058H62.777V345.044H44.031z"/><circle cx="90.901" cy="298.173" r="18.746"/><circle cx="90.901" cy="232.57" r="9.373"/><path d="M72.15 326.3H109.642V345.046H72.15z"/><path d="M72.15 251.314H109.642V270.06H72.15z"/><path d="M90.896 166.957L97.535 187.385 119.014 187.385 101.638 200.013 108.272 220.442 90.896 207.815 73.519 220.442 80.154 200.013 62.777 187.385 84.256 187.385z"/></g></svg>