<svg enable-background="new 0 0 512 512" viewBox="0 0 512 512" xmlns="http://www.w3.org/2000/svg"><path d="m0 0h512v512h-512z" fill="#496e2d"/><path d="m294.273 248.16c-5.402 0-10.53 1.077-15.293 2.79 2.609-5.815 4.358-12.285 4.358-19.193 0-27.337-27.337-47.841-27.337-47.841s-27.337 20.503-27.337 47.841c0 6.909 1.749 13.378 4.358 19.193-4.763-1.713-9.892-2.79-15.293-2.79-27.337 0-47.841 27.337-47.841 27.337s20.503 27.339 47.841 27.339c16.028 0 29.698-9.394 38.273-17.17 8.575 7.776 22.245 17.17 38.273 17.17 27.337 0 47.841-27.339 47.841-27.339s-20.505-27.337-47.843-27.337z" fill="#f0f0f0"/><g fill="#ffda44"><path d="m256 123.382 5.648 17.379h18.272l-14.782 10.741 5.644 17.379-14.782-10.742-14.782 10.742 5.644-17.379-14.782-10.741h18.272z"/><path d="m186.513 153.778 10.863 9.782 12.661-7.31-5.945 13.354 10.862 9.784-14.538-1.529-5.946 13.354-3.04-14.298-14.538-1.528 12.659-7.311z"/><path d="m135.644 204.646 14.3 3.04 7.309-12.661 1.529 14.538 14.298 3.042-13.354 5.946 1.528 14.536-9.782-10.862-13.354 5.946 7.309-12.66z"/><path d="m325.487 153.778-10.863 9.782-12.66-7.31 5.945 13.354-10.862 9.784 14.537-1.529 5.946 13.354 3.041-14.298 14.539-1.528-12.661-7.311z"/><path d="m376.356 204.646-14.299 3.04-7.31-12.661-1.528 14.538-14.298 3.042 13.354 5.946-1.528 14.536 9.782-10.862 13.355 5.946-7.31-12.66z"/></g><path d="m256 379.382c21.715 0 41.731-7.245 57.788-19.436h-115.575c16.056 12.19 36.072 19.436 57.787 19.436z" fill="#f0f0f0"/><path d="m168.288 321.972c3.037 6.951 6.888 13.462 11.412 19.436h152.602c4.523-5.974 8.375-12.484 11.412-19.436z" fill="#f0f0f0"/></svg>