<svg enable-background="new 0 0 512 512" viewBox="0 0 512 512" xmlns="http://www.w3.org/2000/svg"><path d="m0 0h512v512h-512z" fill="#0052b4"/><g fill="#f0f0f0"><path d="m512 233.739v44.522h-233.739v148.402h-44.522v-148.402h-233.739v-44.522h233.739v-148.402h44.522v148.402z"/><path d="m278.261 0h-44.522v233.739h-233.739v44.522h233.739v233.739h44.522v-233.739h233.739v-44.522h-233.739z"/><path d="m383.943 138.332c0-2.977 2.422-5.399 5.4-5.399h11.571c18.292 0 33.172-14.88 33.172-33.171s-14.88-33.171-33.172-33.171h-10.989c-3.586-2.694-8.398-4.355-13.706-4.355-11.071 0-20.046 7.18-20.046 16.037 0 8.771 8.803 15.886 19.726 16.024l-.004.065h25.019c2.979 0 5.4 2.422 5.4 5.4 0 2.979-2.422 5.399-5.4 5.399h-11.571c-18.292 0-33.17 14.88-33.17 33.17 0 18.291 14.879 33.171 33.17 33.171h44.743v-27.77h-44.743c-2.978.001-5.4-2.421-5.4-5.4z"/><path d="m105.682 138.332c0-2.977 2.422-5.399 5.4-5.399h11.571c18.292 0 33.172-14.88 33.172-33.171s-14.88-33.171-33.172-33.171h-10.989c-3.586-2.694-8.398-4.355-13.706-4.355-11.071 0-20.046 7.18-20.046 16.037 0 8.771 8.803 15.886 19.726 16.024l-.004.065h25.019c2.979 0 5.4 2.422 5.4 5.4 0 2.979-2.422 5.399-5.4 5.399h-11.571c-18.291.001-33.17 14.881-33.17 33.171 0 18.291 14.879 33.171 33.17 33.171h44.743v-27.77h-44.743c-2.978 0-5.4-2.422-5.4-5.401z"/><path d="m383.943 416.593c0-2.979 2.422-5.399 5.4-5.399h11.571c18.292 0 33.172-14.88 33.172-33.171s-14.88-33.171-33.172-33.171h-10.989c-3.586-2.694-8.398-4.355-13.706-4.355-11.071 0-20.046 7.18-20.046 16.037 0 8.771 8.803 15.886 19.726 16.024l-.004.065h25.019c2.979 0 5.4 2.422 5.4 5.4s-2.422 5.399-5.4 5.399h-11.571c-18.292 0-33.17 14.88-33.17 33.17 0 18.291 14.879 33.171 33.17 33.171h44.743v-27.77h-44.743c-2.978.001-5.4-2.421-5.4-5.4z"/><path d="m105.682 416.593c0-2.979 2.422-5.399 5.4-5.399h11.571c18.292 0 33.172-14.88 33.172-33.171s-14.88-33.171-33.172-33.171h-10.989c-3.586-2.694-8.398-4.355-13.706-4.355-11.071 0-20.046 7.18-20.046 16.037 0 8.771 8.803 15.886 19.726 16.024l-.004.065h25.019c2.979 0 5.4 2.422 5.4 5.4s-2.422 5.399-5.4 5.399h-11.571c-18.291.001-33.17 14.881-33.17 33.171 0 18.291 14.879 33.171 33.17 33.171h44.743v-27.77h-44.743c-2.978 0-5.4-2.422-5.4-5.401z"/></g></svg>