<svg enable-background="new 0 0 512 512" viewBox="0 0 512 512" xmlns="http://www.w3.org/2000/svg"><path d="m0 0h512v512h-512z" fill="#0052b4"/><path d="m309.334 160v117.333c0 57.154 74.666 74.667 74.666 74.667s74.666-17.513 74.666-74.667v-117.333z" fill="#338af3"/><path d="m309.334 277.333c0 57.154 74.666 74.667 74.666 74.667s74.666-17.513 74.666-74.667z" fill="#a2001d"/><path d="m416 213.335h-21.335v-21.335h-21.332v21.335h-21.333v21.332h21.333v63.999h21.332v-63.999h21.335z"/><path d="m256 0v48.896l-40.147 40.147h40.147v77.914h-52.536l52.536 52.535v36.508h-23.719l-65.324-65.336v65.336h-77.914v-77.724l-77.712 77.724h-11.331v-48.896l40.147-40.147h-40.147v-77.914h52.536l-52.536-52.535v-36.508h23.719l65.324 65.336v-65.336h77.914v77.724l77.712-77.724z" fill="#f0f0f0"/><path d="m0 152.001h104.001v103.999h48v-103.999h103.999v-48h-103.999v-104.001h-48v104.001h-104.001z" fill="#d80027"/><path d="m166.957 166.957 89.043 89.043v-25.18l-63.863-63.863z" fill="#0052b4"/><path d="m166.957 166.957 89.043 89.043v-25.18l-63.863-63.863z" fill="#f0f0f0"/><path d="m166.957 166.957 89.043 89.043v-25.18l-63.863-63.863z" fill="#d80027"/><path d="m63.862 166.959-63.862 63.862v25.179l89.041-89.041z" fill="#d80027"/><path d="m89.043 89.043-89.043-89.043v25.18l63.863 63.863z" fill="#0052b4"/><path d="m89.043 89.043-89.043-89.043v25.18l63.863 63.863z" fill="#f0f0f0"/><g fill="#d80027"><path d="m89.043 89.043-89.043-89.043v25.18l63.863 63.863z"/><path d="m192.138 89.041 63.862-63.862v-25.179l-89.041 89.041z"/></g></svg>