<svg xmlns="http://www.w3.org/2000/svg" viewBox="0 0 512 512"><path fill="#F0F0F0" d="M0 0H512V512H0z"/><path fill="#6DA544" d="M0 0H170.663V512H0z"/><path fill="#D80027" d="M341.337 0H512V512H341.337z"/><path d="M208 256c0 26.509 21.491 48 48 48s48-21.491 48-48v-16h-96v16z" fill="#6DA544"/><path d="M320 224h-48c0-8.836-7.164-16-16-16s-16 7.164-16 16h-48c0 8.836 7.697 16 16.533 16H208c0 8.836 7.164 16 16 16 0 8.836 7.164 16 16 16h32c8.836 0 16-7.164 16-16 8.836 0 16-7.164 16-16h-.533c8.836 0 16.533-7.164 16.533-16z" fill="#FF9811"/></svg>