<svg enable-background="new 0 0 512 512" viewBox="0 0 512 512" xmlns="http://www.w3.org/2000/svg"><path d="m0 0h512v512h-512z" fill="#f0f0f0"/><g fill="#d80027"><path d="m0 64h512v64h-512z"/><path d="m0 192h512v64h-512z"/><path d="m0 320h512v64h-512z"/><path d="m0 448h512v64h-512z"/></g><path d="m0 0h256v256h-256z" fill="#0052b4"/><path d="m142.964 176.883c-26.997 0-48.883-21.886-48.883-48.883s21.886-48.883 48.883-48.883c8.418 0 16.337 2.128 23.253 5.876-10.848-10.607-25.682-17.155-42.053-17.155-33.227 0-60.164 26.935-60.164 60.162s26.937 60.162 60.162 60.162c16.371 0 31.206-6.548 42.053-17.155-6.914 3.746-14.834 5.876-23.251 5.876z" fill="#ffda44"/><path d="m156.738 93.621 8.678 18.149 19.6-4.529-8.778 18.099 15.762 12.499-19.624 4.424.056 20.116-15.694-12.585-15.694 12.585.054-20.116-19.624-4.424 15.762-12.499-8.777-18.099 19.599 4.529z" fill="#ffda44"/></svg>