<svg enable-background="new 0 0 512 512" viewBox="0 0 512 512" xmlns="http://www.w3.org/2000/svg"><path d="m0 .019h512v511.978h-512z" fill="#f0f0f0"/><path d="m0 356.173h512v155.815h-512z" fill="#ffda44"/><path d="m0 .003h512v156.761h-512z" fill="#496e2d"/><path d="m0 188.304h512v134.478h-512z"/><path d="m256 256.007-256 255.987v-511.991z" fill="#a2001d"/><path d="m83.477 187.194 17.078 52.561h55.271l-44.713 32.489 17.077 52.563-44.713-32.486-44.714 32.486 17.081-52.563-44.714-32.489h55.269z" fill="#ffda44"/><path d="m33.503 255.999h99.962v45.869h-99.962z" fill="#f0f0f0"/><path d="m152.395 203.412-16.219-16.218-52.698 52.698-52.698-52.698-16.218 16.218 52.745 52.651-52.745 52.745 16.218 15.999 52.698-52.603 52.698 52.603 16.219-15.999-52.745-52.745z"/></svg>