<svg enable-background="new 0 0 512 512" viewBox="0 0 512 512" xmlns="http://www.w3.org/2000/svg"><path d="m0 0h512v512h-512z" fill="#496e2d"/><path d="m449.016.009.009-.009h-47.215l-.008.009z" fill="#496e2d"/><path d="m401.81 0h-401.81v401.81l401.802-401.801z" fill="#0052b4"/><path d="m203.694 139.124-34.111 16.044 18.164 33.035-37.039-7.085-4.693 37.416-25.8-27.52-25.799 27.52-4.692-37.416-37.039 7.083 18.162-33.034-34.109-16.043 34.111-16.045-18.164-33.034 37.037 7.085 4.695-37.416 25.798 27.52 25.801-27.52 4.692 37.416 37.04-7.085-18.164 33.035z" fill="#ffda44"/><path d="m512 .004v110.192l-401.798 401.797h-110.202v-110.18l401.798-401.797h47.215l.011-.012z" fill="#f0f0f0"/><path d="m62.967 511.996 449.033-449.018v-62.974h-62.975l-.009.009-449.016 449.031v62.952z" fill="#a2001d"/></svg>