<svg xmlns="http://www.w3.org/2000/svg" viewBox="0 0 512 512"><path fill="#F0F0F0" d="M0 0H512V512H0z"/><path fill="#338AF3" d="M0 0H512V170.663H0z"/><path fill="#338AF3" d="M0 341.337H512V512H0z"/><path d="M256 192c-35.346 0-64 28.653-64 64s28.654 64 64 64 64-28.653 64-64-28.654-64-64-64zm0 100.571c-20.197 0-36.571-16.373-36.571-36.571s16.374-36.571 36.571-36.571 36.571 16.373 36.571 36.571-16.374 36.571-36.571 36.571z" fill="#FFDA44"/><path fill="#0052B4" d="M287.673 265.143L256 256 224.327 265.143 213.77 283.429 298.23 283.429z"/><path fill="#338AF3" d="M256 210.286L234.886 246.857 256 256 277.114 246.857z"/><path fill="#6DA544" d="M224.327 265.143L287.673 265.143 277.114 246.857 234.886 246.857z"/></svg>