<svg enable-background="new 0 0 512 512" viewBox="0 0 512 512" xmlns="http://www.w3.org/2000/svg"><path d="m0 0h512v512h-512z" fill="#f0f0f0"/><path d="m0 512v-512l280.419 262.131h-192.809l183.576 249.869z" fill="#0052b4"/><path d="m244.769 246.832-234.57-219.272v219.272 249.869h234.57l-183.576-249.869z" fill="#d80027"/><g fill="#f0f0f0"><path d="m106.819 367.304-18.192-8.557 9.687-17.618-19.754 3.779-2.504-19.956-13.759 14.677-13.759-14.677-2.505 19.956-19.753-3.779 9.687 17.618-18.192 8.557 18.192 8.557-9.687 17.619 19.754-3.779 2.502 19.956 13.761-14.677 13.759 14.677 2.504-19.956 19.754 3.779-9.688-17.619z"/><path d="m99.398 162.343-15.16-7.131 8.073-14.682-16.463 3.149-2.084-16.63-11.467 12.231-11.467-12.231-2.085 16.63-16.463-3.149 8.074 14.682-15.161 7.131 37.102 7.419z"/><path d="m106.819 162.343c0 24.588-19.933 44.522-44.522 44.522s-44.522-19.933-44.522-44.522"/></g></svg>