<svg enable-background="new 0 0 512 512" viewBox="0 0 512 512" xmlns="http://www.w3.org/2000/svg"><path d="m0 0h512v512h-512z" fill="#ffda44"/><path d="m0 0h256v256h-256z" fill="#f0f0f0"/><path d="m0 152.001h104.001v104h48v-104h103.999v-48h-103.999v-104h-48v104h-104.001z" fill="#d80027"/><path d="m203.46 166.958 52.54 52.54v-52.54z" fill="#0052b4"/><path d="m166.957 166.958 89.043 89.043v-25.18l-63.863-63.863z" fill="#0052b4"/><path d="m232.282 256.001-65.325-65.331v65.331z" fill="#0052b4"/><path d="m166.957 166.958 89.043 89.043v-25.18l-63.863-63.863z" fill="#f0f0f0"/><path d="m166.957 166.958 89.043 89.043v-25.18l-63.863-63.863z" fill="#d80027"/><path d="m40.151 166.958-40.151 40.15v-40.15z" fill="#0052b4"/><path d="m89.041 178.281v77.718h-77.711z" fill="#0052b4"/><path d="m63.862 166.96-63.862 63.862v25.179l89.041-89.041z" fill="#d80027"/><path d="m52.54 89.045-52.54-52.541v52.541z" fill="#0052b4"/><path d="m89.043 89.045-89.043-89.044v25.18l63.863 63.864z" fill="#0052b4"/><path d="m23.718.001 65.325 65.331v-65.331z" fill="#0052b4"/><path d="m89.043 89.045-89.043-89.044v25.18l63.863 63.864z" fill="#f0f0f0"/><path d="m89.043 89.045-89.043-89.044v25.18l63.863 63.864z" fill="#d80027"/><path d="m215.849 89.045 40.151-40.151v40.151z" fill="#0052b4"/><path d="m166.959 77.722v-77.72h77.711z" fill="#0052b4"/><path d="m192.138 89.042 63.862-63.862v-25.179l-89.041 89.041z" fill="#d80027"/><circle cx="128" cy="128" fill="#2e52b2" r="31.499"/><g fill="#ffda44"><path d="m128 105.726 5.528 17.016h17.894l-14.475 10.517 5.528 17.017-14.475-10.517-14.476 10.517 5.529-17.017-14.475-10.517h17.892z"/><path d="m128 181.521 3.291 10.132h10.655l-8.619 6.262 3.291 10.132-8.618-6.262-8.619 6.262 3.292-10.132-8.619-6.262h10.654z"/><path d="m128 47.955 3.291 10.133h10.655l-8.619 6.261 3.291 10.133-8.618-6.262-8.619 6.262 3.292-10.133-8.619-6.261h10.654z"/><path d="m209.545 114.738 3.291 10.132h10.655l-8.619 6.262 3.292 10.132-8.619-6.262-8.62 6.262 3.293-10.132-8.62-6.262h10.655z"/><path d="m46.455 114.738 3.291 10.132h10.656l-8.62 6.262 3.291 10.132-8.618-6.262-8.619 6.262 3.292-10.132-8.619-6.262h10.654z"/></g></svg>