<svg enable-background="new 0 0 512 512" viewBox="0 0 512 512" xmlns="http://www.w3.org/2000/svg"><path d="m0 0h512v512h-512z" fill="#0052b4"/><g fill="#d80027"><path d="m445.95 216.686 5.083 15.642h16.445l-13.305 9.665 5.082 15.642-13.305-9.667-13.306 9.667 5.084-15.642-13.306-9.665h16.446z"/><path d="m387.161 329.295 7.624 23.463h24.669l-19.959 14.498 7.624 23.462-19.958-14.499-19.958 14.499 7.624-23.462-19.959-14.498h24.669z"/><path d="m389.382 145.025 6.353 19.553h20.557l-16.631 12.082 6.353 19.552-16.632-12.085-16.632 12.085 6.354-19.552-16.633-12.082h20.557z"/><path d="m332.814 216.004 7.624 23.463h24.668l-19.958 14.498 7.624 23.462-19.958-14.499-19.959 14.499 7.625-23.462-19.958-14.498h24.668z"/></g><path d="m256 .002v48.896l-40.147 40.148h40.147v77.913h-52.536l52.536 52.535v36.508h-23.719l-65.324-65.335v65.335h-77.914v-77.724l-77.712 77.724h-11.331v-48.896l40.147-40.147h-40.147v-77.913h52.536l-52.536-52.536v-36.508h23.719l65.324 65.336v-65.336h77.914v77.724l77.712-77.724z" fill="#f0f0f0"/><path d="m0 152.002h104.001v104h48v-104h103.999v-48h-103.999v-104h-48v104h-104.001z" fill="#d80027"/><path d="m166.957 166.959 89.043 89.043v-25.18l-63.863-63.863z" fill="#0052b4"/><path d="m166.957 166.959 89.043 89.043v-25.18l-63.863-63.863z" fill="#f0f0f0"/><path d="m166.957 166.959 89.043 89.043v-25.18l-63.863-63.863z" fill="#d80027"/><path d="m63.862 166.961-63.862 63.862v25.179l89.041-89.041z" fill="#d80027"/><path d="m89.043 89.046-89.043-89.044v25.181l63.863 63.863z" fill="#0052b4"/><path d="m89.043 89.046-89.043-89.044v25.181l63.863 63.863z" fill="#f0f0f0"/><path d="m89.043 89.046-89.043-89.044v25.181l63.863 63.863z" fill="#d80027"/><path d="m192.138 89.043 63.862-63.862v-25.179l-89.041 89.041z" fill="#d80027"/></svg>