<svg xmlns="http://www.w3.org/2000/svg" viewBox="0 0 512 512"><path fill="#F0F0F0" d="M0 0.007H512V511.996H0z"/><path fill="#D80027" d="M0 0.001H512V170.66400000000002H0z"/><path fill="#D80027" d="M0 341.336H512V511.999H0z"/><path d="M322.783 255.999c0 36.883-29.9 58.435-66.783 58.435s-66.783-21.552-66.783-58.435 29.9-66.783 66.783-66.783 66.783 29.9 66.783 66.783z" fill="#FFDA44"/><path d="M322.783 255.999c0 36.883-29.9 66.783-66.783 66.783s-66.783-29.9-66.783-66.783" fill="#0052B4"/><g fill="#D80027"><path d="M214.261 239.303H230.957V272.694H214.261z"/><path d="M281.043 239.303H297.73900000000003V272.694H281.043z"/><path d="M247.652 214.26H264.348V272.695H247.652z"/></g></svg>