<svg enable-background="new 0 0 512 512" viewBox="0 0 512 512" xmlns="http://www.w3.org/2000/svg"><path d="m0 0h512v512h-512z"/><path d="m0 0h512v511.996" fill="#a2001d"/><g fill="#f0f0f0"><path d="m192.64 350.815 3.585 11.037h11.606l-9.39 6.82 3.588 11.037-9.389-6.822-9.389 6.822 3.586-11.037-9.388-6.82h11.604z"/><path d="m163.002 244.867 5.978 18.397h19.34l-15.648 11.366 5.977 18.395-15.647-11.368-15.647 11.368 5.978-18.395-15.65-11.366h19.342z"/><path d="m163.002 379.709 5.976 18.395h19.342l-15.649 11.368 5.978 18.394-15.647-11.368-15.647 11.368 5.976-18.394-15.648-11.368h19.341z"/><path d="m219.551 293.025 5.978 18.396h19.341l-15.648 11.367 5.976 18.394-15.647-11.368-15.647 11.368 5.978-18.394-15.648-11.367h19.34z"/><path d="m106.451 293.025 5.979 18.396h19.34l-15.648 11.367 5.977 18.394-15.648-11.368-15.648 11.368 5.979-18.394-15.648-11.367h19.34z"/></g><path d="m376.525 204.164c-7.628-7.628-17.537-12.133-28.188-12.908l31.88-24.795c-12.698-12.698-29.714-18.431-46.319-17.218-1.988-7.145-5.778-13.892-11.396-19.511l-12.593 25.186c-.826-1.506-1.872-2.923-3.148-4.197-7.245-7.245-18.991-7.244-26.234 0s-7.245 18.99 0 26.234c1.276 1.276 2.692 2.322 4.197 3.148l-25.186 12.593c5.62 5.62 12.371 9.412 19.519 11.399-1.217 16.605 4.511 33.619 17.209 46.317l27.854-35.812c2.096-2.064 4.862-3.202 7.807-3.202 2.973 0 5.768 1.158 7.87 3.26 2.103 2.103 3.26 4.897 3.26 7.87 0 2.974-1.158 5.768-3.26 7.87l10.494 10.494c4.905-4.905 7.607-11.428 7.607-18.364 0-5.675-1.81-11.071-5.153-15.534 4.871 1.3 9.474 3.849 13.288 7.663 11.573 11.572 11.573 30.403 0 41.975l10.494 10.494c8.409-8.409 13.04-19.59 13.04-31.482-.002-11.89-4.633-23.071-13.042-31.48z" fill="#ffda44"/></svg>