<svg enable-background="new 0 0 512 512" viewBox="0 0 512 512" xmlns="http://www.w3.org/2000/svg"><path d="m0 0h512v512h-512z" fill="#d80027"/><path d="m0 0h512v256h-512z" fill="#0052b4"/><path d="m0 512 256-256-256-256z" fill="#f0f0f0"/><g fill="#ffda44"><path d="m169.699 256-31.835-14.974 16.953-30.832-34.57 6.612-4.381-34.922-24.08 25.684-24.078-25.684-4.383 34.922-34.568-6.613 16.952 30.832-31.836 14.975 31.836 14.974-16.952 30.832 34.571-6.612 4.378 34.922 24.08-25.684 24.08 25.684 4.381-34.922 34.568 6.613-16.952-30.831z"/><path d="m21.789 50.825 9.081 12.695 14.879-4.713-9.268 12.559 9.081 12.694-14.809-4.932-9.268 12.559.117-15.607-14.809-4.934 14.88-4.713z"/><path d="m21.789 420.313 9.081 12.695 14.879-4.713-9.268 12.559 9.081 12.696-14.809-4.933-9.268 12.558.117-15.607-14.809-4.934 14.88-4.713z"/><path d="m210.395 235.569-9.081 12.695-14.879-4.713 9.268 12.559-9.081 12.696 14.809-4.933 9.268 12.558-.117-15.607 14.809-4.934-14.88-4.713z"/></g></svg>