<svg enable-background="new 0 0 512 512" viewBox="0 0 512 512" xmlns="http://www.w3.org/2000/svg"><path d="m0 0h512v512h-512z" fill="#0052b4"/><path d="m409.043 201.739-25.043 8.348-25.043-8.348-8.348-20.869 8.348-20.87h50.086l-8.347 20.87z" fill="#acabb1"/><path d="m325.565 201.739v91.825c0 44.73 58.435 58.436 58.435 58.436s58.435-13.706 58.435-58.436v-91.825z" fill="#338af3"/><path d="m330.832 315.319c14.364 27.576 53.168 36.681 53.168 36.681s38.804-9.105 53.168-36.681l-53.168-88.536z" fill="#6da544"/><path d="m442.435 292.637-58.435-90.898-58.435 90.899v.927c0 8.279 2.006 15.491 5.267 21.754l53.168-82.706 53.168 82.706c3.262-6.263 5.267-13.476 5.267-21.754z" fill="#ffda44"/><path d="m256 0v48.896l-40.147 40.147h40.147v77.914h-52.536l52.536 52.535v36.508h-23.719l-65.324-65.336v65.336h-77.914v-77.724l-77.712 77.724h-11.331v-48.896l40.147-40.147h-40.147v-77.914h52.536l-52.536-52.535v-36.508h23.719l65.324 65.336v-65.336h77.914v77.724l77.712-77.724z" fill="#f0f0f0"/><path d="m0 152.001h104.001v103.999h48v-103.999h103.999v-48h-103.999v-104.001h-48v104.001h-104.001z" fill="#d80027"/><path d="m166.957 166.957 89.043 89.043v-25.18l-63.863-63.863z" fill="#0052b4"/><path d="m166.957 166.957 89.043 89.043v-25.18l-63.863-63.863z" fill="#f0f0f0"/><path d="m166.957 166.957 89.043 89.043v-25.18l-63.863-63.863z" fill="#d80027"/><path d="m63.862 166.959-63.862 63.862v25.179l89.041-89.041z" fill="#d80027"/><path d="m89.043 89.043-89.043-89.043v25.18l63.863 63.863z" fill="#0052b4"/><path d="m89.043 89.043-89.043-89.043v25.18l63.863 63.863z" fill="#f0f0f0"/><g fill="#d80027"><path d="m89.043 89.043-89.043-89.043v25.18l63.863 63.863z"/><path d="m192.138 89.041 63.862-63.862v-25.179l-89.041 89.041z"/></g></svg>