<svg xmlns="http://www.w3.org/2000/svg" viewBox="0 0 512 512"><path fill="#F0F0F0" d="M0 0.001H512V511.979H0z"/><path fill="#D80027" d="M0 0.005H512V170.668H0z"/><path fill="#0052B4" d="M0 341.336H512V511.999H0z"/><path d="M311.092 190.768l-20.659 20.659c8.812 8.813 14.263 20.986 14.263 34.433 0 26.894-21.801 48.696-48.696 48.696s-48.696-21.801-48.696-48.696c0-13.447 5.451-25.62 14.263-34.433l-20.659-20.659c-14.1 14.099-22.821 33.577-22.821 55.092 0 43.03 34.883 77.913 77.913 77.913s77.913-34.883 77.913-77.913c0-21.514-8.721-40.993-22.821-55.092z" fill="#6DA544"/><path fill="#FFDA44" d="M256 216.643L263.253 238.964 286.721 238.964 267.735 252.758 274.987 275.078 256 261.283 237.013 275.078 244.265 252.758 225.279 238.964 248.747 238.964z"/></svg>