<svg enable-background="new 0 0 512 512" viewBox="0 0 512 512" xmlns="http://www.w3.org/2000/svg"><path d="m0 0h512v512h-512z" fill="#496e2d"/><path d="m0 512v-512h512" fill="#0052b4"/><path d="m0 466.745v45.255h45.255l466.745-466.745v-45.255h-45.255z" fill="#ffda44"/><g fill="#f0f0f0"><path d="m64.531 35.184 7.68 23.635h24.851l-20.106 14.606 7.68 23.637-20.105-14.609-20.106 14.609 7.68-23.637-20.105-14.606h24.851z"/><path d="m191.469 35.184 7.68 23.635h24.851l-20.106 14.606 7.681 23.637-20.106-14.609-20.105 14.609 7.68-23.637-20.106-14.606h24.851z"/><path d="m64.531 158.938 7.68 23.635h24.851l-20.106 14.606 7.68 23.637-20.105-14.609-20.106 14.609 7.68-23.637-20.105-14.606h24.851z"/><path d="m191.469 158.938 7.68 23.635h24.851l-20.106 14.606 7.681 23.637-20.106-14.609-20.105 14.609 7.68-23.637-20.106-14.606h24.851z"/><path d="m128 97.062 7.68 23.634h24.851l-20.106 14.607 7.681 23.635-20.106-14.607-20.105 14.607 7.68-23.635-20.106-14.607h24.851z"/></g></svg>