<svg enable-background="new 0 0 512 512" viewBox="0 0 512 512" xmlns="http://www.w3.org/2000/svg"><path d="m0 0h512v512h-512z" fill="#f0f0f0"/><path d="m0 0h512v256h-512z" fill="#d80027"/><g fill="#f0f0f0"><path d="m69.565 128c0-35.744 25.121-65.604 58.666-72.93-5.157-1.126-10.505-1.736-16-1.736-41.238 0-74.666 33.428-74.666 74.666s33.428 74.666 74.666 74.666c5.495 0 10.843-.61 16-1.736-33.544-7.326-58.666-37.186-58.666-72.93z"/><path d="m165.565 58.666 5.296 16.299h17.135l-13.863 10.072 5.296 16.297-13.864-10.072-13.864 10.072 5.296-16.297-13.863-10.072h17.135z"/><path d="m123.996 90.666 5.296 16.299h17.136l-13.863 10.072 5.295 16.297-13.864-10.072-13.863 10.072 5.296-16.297-13.864-10.072h17.136z"/><path d="m207.134 90.666 5.296 16.299h17.135l-13.864 10.072 5.296 16.297-13.863-10.072-13.864 10.072 5.296-16.297-13.863-10.072h17.135z"/><path d="m191.134 138.666 5.296 16.299h17.135l-13.864 10.072 5.296 16.297-13.863-10.072-13.864 10.072 5.296-16.297-13.863-10.072h17.135z"/><path d="m139.996 138.666 5.296 16.299h17.136l-13.863 10.072 5.295 16.297-13.864-10.072-13.863 10.072 5.296-16.297-13.864-10.072h17.136z"/></g></svg>