<svg enable-background="new 0 0 512 512" viewBox="0 0 512 512" xmlns="http://www.w3.org/2000/svg"><path d="m0 0h512v512h-512z" fill="#f0f0f0"/><path d="m0 166.957h512v178.076h-512z" fill="#0052b4"/><path d="m0 345.043h512v166.957h-512z" fill="#d80027"/><path d="m83.597 141.308v146.862c0 83.541 109.136 109.137 109.136 109.137s109.137-25.597 109.137-109.137v-146.862z" fill="#f0f0f0"/><path d="m109.197 141.308v146.862c0 9.807 2.179 19.07 6.493 27.753h154.085c4.315-8.683 6.493-17.946 6.493-27.753v-146.862z" fill="#d80027"/><path d="m243.933 243.708h-38.397v-25.6h25.6v-25.6h-25.6v-25.6h-25.6v25.6h-25.599v25.6h25.599v25.6h-38.403v25.6h38.403v25.6h25.6v-25.6h38.397z" fill="#f0f0f0"/><path d="m150.611 351.658c16.496 10.366 33.445 16.386 42.122 19.062 8.677-2.676 25.627-8.696 42.122-19.062 16.637-10.456 28.299-22.413 34.921-35.736-7.304-5.168-16.215-8.215-25.843-8.215-3.505 0-6.911.415-10.185 1.178-6.938-15.765-22.686-26.778-41.015-26.778s-34.077 11.012-41.015 26.778c-3.273-.762-6.679-1.178-10.185-1.178-9.628 0-18.539 3.048-25.843 8.215 6.622 13.323 18.285 25.28 34.921 35.736z" fill="#0052b4"/></svg>