<svg enable-background="new 0 0 512 512" viewBox="0 0 512 512" xmlns="http://www.w3.org/2000/svg"><path d="m0 0h512v512h-512z" fill="#0052b4"/><path d="m332.058 189.217v81.623c0 39.76 51.942 51.942 51.942 51.942s51.942-12.182 51.942-51.942v-81.623z" fill="#ffda44"/><path d="m376.579 218.899c0 8.196-6.644 29.682-14.84 29.682s-14.84-21.485-14.84-29.682c0-8.196 14.84-14.84 14.84-14.84s14.84 6.643 14.84 14.84z" fill="#ff9811"/><path d="m415.961 235.063c2.394-5.843 4.257-14.385 4.257-18.637 0-6.831-8.904-12.367-8.904-12.367s-8.904 5.537-8.904 12.367c0 4.252 1.862 12.793 4.257 18.637l-5.14 11.607c3.022 1.229 6.324 1.911 9.788 1.911 3.463 0 6.766-.682 9.788-1.911z" fill="#a2001d"/><path d="m372.87 270.84s-7.421 14.84-7.421 29.682h37.101c0-14.84-7.421-29.682-7.421-29.682l-11.13-7.421z" fill="#6da544"/><path d="m395.13 270.84v-3.71c0-6.147-4.983-11.13-11.13-11.13s-11.13 4.983-11.13 11.13v3.71z" fill="#d80027"/><path d="m256 0v48.896l-40.147 40.147h40.147v77.914h-52.536l52.536 52.535v36.508h-23.719l-65.324-65.336v65.336h-77.914v-77.724l-77.712 77.724h-11.331v-48.896l40.147-40.147h-40.147v-77.914h52.536l-52.536-52.535v-36.508h23.719l65.324 65.336v-65.336h77.914v77.724l77.712-77.724z" fill="#f0f0f0"/><path d="m0 152.001h103.999v103.999h48v-103.999h104.001v-48h-104.001v-104.001h-48v104.001h-103.999z" fill="#d80027"/><path d="m166.957 166.957 89.043 89.043v-25.18l-63.863-63.863z" fill="#0052b4"/><path d="m166.957 166.957 89.043 89.043v-25.18l-63.863-63.863z" fill="#f0f0f0"/><path d="m166.957 166.957 89.043 89.043v-25.18l-63.863-63.863z" fill="#d80027"/><path d="m63.862 166.959-63.862 63.862v25.179l89.041-89.041z" fill="#d80027"/><path d="m89.043 89.043-89.043-89.043v25.18l63.863 63.863z" fill="#0052b4"/><path d="m89.043 89.043-89.043-89.043v25.18l63.863 63.863z" fill="#f0f0f0"/><g fill="#d80027"><path d="m89.043 89.043-89.043-89.043v25.18l63.863 63.863z"/><path d="m192.138 89.041 63.862-63.862v-25.179l-89.041 89.041z"/></g></svg>