<svg enable-background="new 0 0 512 512" viewBox="0 0 512 512" xmlns="http://www.w3.org/2000/svg"><path d="m0 .007h512v511.989h-512z" fill="#f0f0f0"/><path d="m0 .001h512v170.663h-512z" fill="#d80027"/><path d="m0 341.336h512v170.663h-512z" fill="#6da544"/><g fill="#ffda44"><path d="m213.259 320.926h85.482v-36.33l-17.096 8.548-25.645-25.644-25.645 25.644-17.096-8.548z"/><path d="m164.351 278.185 3.979 12.245h12.873l-10.414 7.567 3.978 12.244-10.416-7.568-10.415 7.568 3.978-12.244-10.415-7.567h12.874z"/><path d="m176.687 235.445 3.978 12.244h12.874l-10.416 7.567 3.978 12.244-10.414-7.566-10.416 7.566 3.978-12.244-10.415-7.567h12.874z"/><path d="m211.949 203.39 3.978 12.243h12.875l-10.416 7.568 3.978 12.244-10.415-7.567-10.416 7.567 3.978-12.244-10.415-7.568h12.874z"/><path d="m347.648 278.185-3.978 12.245h-12.875l10.416 7.567-3.978 12.244 10.415-7.568 10.416 7.568-3.978-12.244 10.415-7.567h-12.874z"/><path d="m335.313 235.445-3.978 12.244h-12.874l10.416 7.567-3.979 12.244 10.415-7.566 10.416 7.566-3.978-12.244 10.415-7.567h-12.874z"/><path d="m300.051 203.39-3.979 12.243h-12.874l10.416 7.568-3.978 12.244 10.415-7.567 10.416 7.567-3.978-12.244 10.414-7.568h-12.873z"/><path d="m256 187.361 3.979 12.244h12.874l-10.416 7.567 3.979 12.244-10.416-7.567-10.416 7.567 3.979-12.244-10.416-7.567h12.874z"/></g></svg>