<svg enable-background="new 0 0 512 512" viewBox="0 0 512 512" xmlns="http://www.w3.org/2000/svg"><path d="m0 0h512v512h-512z" fill="#496e2d"/><g fill="#f0f0f0"><path d="m407.816 147.517c12.596-35.108-1.555-73.288-31.922-92.305 5.462.711 10.93 1.997 16.327 3.932 40.505 14.532 61.558 59.145 47.026 99.649-14.532 40.505-59.145 61.558-99.649 47.026-5.397-1.936-10.436-4.421-15.104-7.344 35.53 4.625 70.727-15.851 83.322-50.958z"/><path d="m337.957 45.589-10.945 14.141-16.83-6.038 10.067 14.778-10.943 14.14 17.165-5.006 10.068 14.776.541-17.872 17.165-5.007-16.829-6.037z"/><path d="m367.509 91.668-10.944 14.141-16.831-6.039 10.068 14.779-10.945 14.14 17.167-5.008 10.067 14.779.541-17.873 17.167-5.007-16.832-6.039z"/><path d="m285.852 62.371-10.945 14.14-16.83-6.038 10.067 14.778-10.944 14.14 17.165-5.006 10.069 14.778.541-17.873 17.165-5.007-16.829-6.039z"/><path d="m284.652 115.154-10.945 14.142-16.83-6.039 10.068 14.778-10.945 14.14 17.166-5.006 10.068 14.778.541-17.874 17.166-5.006-16.831-6.039z"/><path d="m334.879 133.175-10.944 14.141-16.831-6.039 10.068 14.778-10.945 14.14 17.167-5.006 10.067 14.778.541-17.874 17.167-5.007-16.832-6.038z"/></g><path d="m41.74 0h133.565v512h-133.565z" fill="#d80027"/><path d="m92.712 134.783-22.362-16.658v-23.556l22.362-16.658h31.625l22.362 16.658v23.556l-22.362 16.658z" fill="#f0f0f0"/><path d="m108.524 77.911h-15.812l-22.362 16.658v11.516h38.174z" fill="#ff9811"/><path d="m108.524 134.783h15.813l22.362-16.658v-12.016h-38.175z" fill="#ff9811"/><path d="m92.712 434.091-22.362-16.657v-23.558l22.362-16.658h31.625l22.362 16.658v23.558l-22.362 16.657z" fill="#f0f0f0"/><path d="m108.524 377.218h-15.812l-22.362 16.658v11.517h38.174z" fill="#ff9811"/><path d="m108.524 434.091h15.813l22.362-16.657v-12.018h-38.175z" fill="#ff9811"/><path d="m92.712 284.437-22.362-16.658v-23.556l22.362-16.659h31.625l22.362 16.659v23.556l-22.362 16.658z" fill="#496e2d"/><path d="m147.482 321.087h-9.74v-9.739h-17.116l-12.103-12.102-12.101 12.102h-17.115v9.739h-9.74v19.48h9.74v9.739h17.114l12.103 12.103 12.102-12.103h17.116v-9.739h9.74z" fill="#496e2d"/><path d="m147.482 171.434h-9.74v-9.739h-17.116l-12.103-12.103-12.101 12.103h-17.115v9.739h-9.74v19.479h9.74v9.739h17.114l12.103 12.103 12.102-12.103h17.116v-9.739h9.74z" fill="#496e2d"/><path d="m97.391 244.87h22.261v22.261h-22.261z" fill="#d80027"/><circle cx="108.522" cy="181.17" fill="#d80027" r="11.13"/><circle cx="108.522" cy="330.83" fill="#d80027" r="11.13"/></svg>