<svg enable-background="new 0 0 512 512" viewBox="0 0 512 512" xmlns="http://www.w3.org/2000/svg"><path d="m0 .006h512v511.989h-512z" fill="#d80027"/><circle cx="256" cy="255.999" fill="#f0f0f0" r="128"/><g fill="#d80027"><path d="m271.768 207.059 21.96 30.261 35.563-11.531-21.993 30.233 21.957 30.261-35.553-11.575-21.993 30.234.023-37.386-35.551-11.576 35.564-11.531z"/><path d="m285.09 331.637c-41.773 0-75.637-33.863-75.637-75.637s33.863-75.637 75.637-75.637c13.025 0 25.279 3.293 35.979 9.091-16.784-16.414-39.739-26.545-65.071-26.545-51.411 0-93.09 41.678-93.09 93.091s41.68 93.092 93.092 93.092c25.332 0 48.286-10.132 65.071-26.545-10.7 5.796-22.955 9.09-35.981 9.09z"/></g></svg>