<svg xmlns="http://www.w3.org/2000/svg" viewBox="0 0 512 512"><path fill="#D80027" d="M0 0H512V512H0z"/><path fill="#F0F0F0" d="M255.767 203.717L279.226 236.043 317.217 223.724 293.722 256.023 317.178 288.349 279.199 275.985 255.704 308.283 255.728 268.344 217.749 255.978 255.742 243.659z"/><path d="M191.744 336.802c-44.626 0-80.803-36.176-80.803-80.803s36.176-80.803 80.803-80.803c13.914 0 27.006 3.518 38.437 9.711-17.931-17.535-42.454-28.358-69.514-28.358-54.924 0-99.449 44.525-99.449 99.449s44.525 99.449 99.449 99.449c27.06 0 51.583-10.823 69.514-28.358-11.431 6.194-24.523 9.713-38.437 9.713z" fill="#F0F0F0"/></svg>