<svg xmlns="http://www.w3.org/2000/svg" viewBox="0 0 512 512"><path fill="#D80027" d="M0 0H512V512H0z"/><path fill="#0052B4" d="M0 0H256V256H0z"/><path fill="#F0F0F0" d="M211.478 128L177.368 144.046 195.532 177.08 158.493 169.994 153.799 207.411 128 179.891 102.201 207.411 97.508 169.994 60.467 177.079 78.631 144.043 44.522 128 78.632 111.955 60.467 78.921 97.507 86.006 102.201 48.589 128 76.109 153.799 48.589 158.493 86.006 195.533 78.921 177.369 111.957z"/><circle cx="128" cy="128" r="51.989" fill="#0052B4"/><path d="M128 155.703c-15.274 0-27.703-12.427-27.703-27.703s12.427-27.703 27.703-27.703c15.274 0 27.703 12.427 27.703 27.703S143.274 155.703 128 155.703z" fill="#F0F0F0"/></svg>