<svg xmlns="http://www.w3.org/2000/svg" viewBox="0 0 512 512"><path fill="#F0F0F0" d="M0 0H512V512H0z"/><path fill="#D80027" d="M0 304L208 304 208 512 304 512 304 304 512 304 512 208 304 208 304 0 208 0 208 208 0 208z"/><path fill="#0052B4" d="M406.92 333.913L512 438.993 512 333.913z"/><path fill="#0052B4" d="M333.913 333.913L512 512 512 461.64 384.273 333.913z"/><path fill="#0052B4" d="M464.564 512L333.913 381.336 333.913 512z"/><path fill="#F0F0F0" d="M333.913 333.913L512 512 512 461.64 384.273 333.913z"/><path fill="#D80027" d="M333.913 333.913L512 512 512 461.64 384.273 333.913z"/><path fill="#0052B4" d="M80.302 333.913L0 414.215 0 333.913z"/><path fill="#0052B4" d="M178.084 356.559L178.084 511.997 22.658 511.997z"/><path fill="#D80027" d="M127.724 333.916L0 461.641 0 512 0 512 178.084 333.916z"/><path fill="#0052B4" d="M105.08 178.087L0 73.007 0 178.087z"/><path fill="#0052B4" d="M178.087 178.087L0 0 0 50.36 127.727 178.087z"/><path fill="#0052B4" d="M47.436 0L178.087 130.663 178.087 0z"/><path fill="#F0F0F0" d="M178.087 178.087L0 0 0 50.36 127.727 178.087z"/><path fill="#D80027" d="M178.087 178.087L0 0 0 50.36 127.727 178.087z"/><g fill="#0052B4"><path d="M431.698 178.087L512 97.785 512 178.087z"/><path d="M333.916 155.441L333.916 0.003 489.342 0.003z"/></g><path fill="#D80027" d="M384.276 178.084L512 50.359 512 0 512 0 333.916 178.084z"/></svg>