<svg enable-background="new 0 0 512.006 512.006" viewBox="0 0 512.006 512.006" xmlns="http://www.w3.org/2000/svg"><path d="m.003.007h511.999v511.999h-511.999z" fill="#f0f0f0"/><g fill="#338af3"><path d="m.003 0h511.999v64h-511.999z"/><path d="m.003 128h511.999v64h-511.999z"/><path d="m.003 383.999h511.999v64h-511.999z"/><path d="m.003 255.999h511.999v64h-511.999z"/></g><path d="m.003.004h255.999v255.999h-255.999z" fill="#f0f0f0"/><path d="m197.568 128.002-28.425 13.371 15.137 27.529-30.866-5.905-3.911 31.181-21.5-22.933-21.499 22.933-3.911-31.181-30.865 5.904 15.135-27.529-28.425-13.37 28.426-13.37-15.136-27.529 30.864 5.904 3.913-31.18 21.498 22.932 21.501-22.932 3.91 31.18 30.867-5.904-15.137 27.529z" fill="#ffda44"/></svg>