<svg enable-background="new 0 0 512 512" viewBox="0 0 512 512" xmlns="http://www.w3.org/2000/svg"><path d="m0 0h512v512h-512z" fill="#d80027"/><path d="m0 .007h512v181.793h-512z" fill="#338af3"/><path d="m0 330.207h512v181.793h-512z" fill="#6da544"/><g fill="#f0f0f0"><path d="m173.389 115.322c0-19.617 13.787-36.006 32.198-40.027-2.829-.618-5.766-.954-8.781-.954-22.634.001-40.98 18.347-40.98 40.981s18.346 40.98 40.98 40.98c3.016 0 5.951-.335 8.781-.954-18.411-4.02-32.198-20.408-32.198-40.026z"/><path d="m229.808 133.95 2.775 8.537h8.977l-7.263 5.278 2.775 8.537-7.264-5.275-7.263 5.275 2.775-8.537-7.264-5.278h8.978z"/><path d="m258.462 133.95 2.774 8.537h8.978l-7.263 5.278 2.774 8.537-7.263-5.275-7.264 5.275 2.775-8.537-7.262-5.278h8.976z"/><path d="m287.115 133.95 2.775 8.537h8.977l-7.263 5.278 2.775 8.537-7.264-5.275-7.262 5.275 2.773-8.537-7.262-5.278h8.977z"/><path d="m315.768 133.95 2.775 8.537h8.978l-7.264 5.278 2.775 8.537-7.264-5.275-7.262 5.275 2.774-8.537-7.263-5.278h8.977z"/><path d="m344.422 133.95 2.774 8.537h8.978l-7.263 5.278 2.774 8.537-7.263-5.275-7.263 5.275 2.774-8.537-7.262-5.278h8.977z"/><path d="m258.462 104.146 2.774 8.537h8.978l-7.263 5.277 2.774 8.538-7.263-5.276-7.264 5.276 2.775-8.538-7.262-5.277h8.976z"/><path d="m287.115 104.146 2.775 8.537h8.977l-7.263 5.277 2.775 8.538-7.264-5.276-7.262 5.276 2.773-8.538-7.262-5.277h8.977z"/><path d="m315.768 104.146 2.775 8.537h8.978l-7.264 5.277 2.775 8.538-7.264-5.276-7.262 5.276 2.774-8.538-7.263-5.277h8.977z"/><path d="m344.422 104.146 2.774 8.537h8.978l-7.263 5.277 2.774 8.538-7.263-5.276-7.263 5.276 2.774-8.538-7.262-5.277h8.977z"/><path d="m287.115 74.342 2.775 8.539h8.977l-7.263 5.275 2.775 8.54-7.264-5.278-7.262 5.278 2.773-8.54-7.262-5.275h8.977z"/><path d="m315.768 74.342 2.775 8.539h8.978l-7.264 5.275 2.775 8.54-7.264-5.278-7.262 5.278 2.774-8.54-7.263-5.275h8.977z"/><path d="m344.422 74.342 2.774 8.539h8.978l-7.263 5.275 2.774 8.54-7.263-5.278-7.263 5.278 2.774-8.54-7.262-5.275h8.977z"/><path d="m0 200.348h512v111.304h-512z"/></g></svg>