<svg enable-background="new 0 0 512 512" viewBox="0 0 512 512" xmlns="http://www.w3.org/2000/svg"><path d="m.002.002h511.998v511.998h-511.998z" fill="#2e52b2"/><path d="m383.998 259.709-46.129 46.129c8.645 16.674 26.051 28.074 46.129 28.074s37.484-11.4 46.129-28.074z" fill="#ffda44"/><path d="m332.056 178.086v81.622.001c.001 39.759 51.942 51.941 51.942 51.941s51.941-12.182 51.942-51.942v-.001-81.621z" fill="#6da544"/><path d="m372.868 215.184h22.261v59.358h-22.261z" fill="#f0f0f0"/><circle cx="383.998" cy="215.184" fill="#a2001d" r="11.13"/><g fill="#ffda44"><path d="m346.901 192.923h14.84v14.84h-14.84z"/><path d="m346.901 226.314h14.84v14.84h-14.84z"/><path d="m346.901 259.705h14.84v14.84h-14.84z"/><path d="m406.259 192.923h14.84v14.84h-14.84z"/><path d="m406.259 226.314h14.84v14.84h-14.84z"/><path d="m406.259 259.705h14.84v14.84h-14.84z"/></g><path d="m255.999 0v48.896l-40.147 40.147h40.147v77.913h-52.536l52.536 52.535v36.508h-23.719l-65.324-65.335v65.335h-77.913v-77.724l-77.712 77.724h-11.331v-48.896l40.147-40.147h-40.147v-77.913h52.535l-52.535-52.535v-36.508h23.719l65.324 65.335v-65.335h77.913v77.723l77.712-77.723z" fill="#f0f0f0"/><path d="m0 152h104v103.999h48v-103.999h103.999v-48h-103.999v-104h-48v104h-104z" fill="#d80027"/><path d="m166.956 166.956 89.043 89.043v-25.18l-63.863-63.863z" fill="#0052b4"/><path d="m166.956 166.956 89.043 89.043v-25.18l-63.863-63.863z" fill="#f0f0f0"/><path d="m166.956 166.956 89.043 89.043v-25.18l-63.863-63.863z" fill="#d80027"/><path d="m63.862 166.958-63.862 63.862v25.179l89.041-89.041z" fill="#d80027"/><path d="m89.043 89.043-89.043-89.043v25.18l63.863 63.863z" fill="#0052b4"/><path d="m89.043 89.043-89.043-89.043v25.18l63.863 63.863z" fill="#f0f0f0"/><path d="m89.043 89.043-89.043-89.043v25.18l63.863 63.863z" fill="#d80027"/><path d="m192.137 89.041 63.862-63.862v-25.179l-89.041 89.041z" fill="#d80027"/></svg>