<svg xmlns="http://www.w3.org/2000/svg" viewBox="0 0 512 512"><path d="M0 0H512V512H0z"/><path fill="#6DA544" d="M512 256L512 512 0 512 215.185 256z"/><path fill="#D80027" d="M512 0L512 256 215.185 256 0 0z"/><path d="M221.001 230.957L26.868 0 8.956 0 217.124 247.652 512 247.652 512 230.957z"/><path d="M8.956 512L26.868 512 221.001 281.043 512 281.043 512 264.348 217.124 264.348z"/><path d="M0 10.655L0 31.964 188.317 256 0 480.036 0 501.345 206.229 256z"/><path fill="#FFDA44" d="M8.956 0L0 0 0 10.655 206.229 256 0 501.345 0 512 8.956 512 217.124 264.348 512 264.348 512 247.652 217.124 247.652z"/><path d="M55.76 320v-25.147c25.095 0 45.509-20.417 45.509-45.509 0-17.754-14.444-32.198-32.198-32.198-12.094 0-21.935 9.839-21.935 21.936 0 7.733 6.292 14.027 14.028 14.027 4.372 0 7.929-3.56 7.929-7.93h25.146c0 18.239-14.838 33.077-33.075 33.077-21.602 0-39.174-17.574-39.174-39.174 0-25.962 21.121-47.083 47.081-47.083 31.619 0 57.345 25.725 57.345 57.345C126.416 288.303 94.72 320 55.76 320z" fill="#FFDA44"/></svg>