<svg enable-background="new 0 0 512 512" viewBox="0 0 512 512" xmlns="http://www.w3.org/2000/svg"><path d="m0 0h512v512h-512z" fill="#d80027"/><path d="m0 .001h256v255.989h-256z" fill="#0052b4"/><g fill="#f0f0f0"><path d="m187.973 145.805 4.421 13.606h14.305l-11.574 8.407 4.421 13.605-11.573-8.408-11.573 8.408 4.421-13.605-11.573-8.407h14.304z"/><path d="m116.127 38.953 7.369 22.676h23.84l-19.288 14.012 7.367 22.674-19.288-14.013-19.288 14.013 7.369-22.674-19.289-14.012h23.84z"/><path d="m187.362 62.698 7.368 22.676h23.841l-19.288 14.012 7.367 22.675-19.288-14.015-19.288 14.015 7.368-22.675-19.289-14.012h23.842z"/><path d="m131.055 157.678 7.369 22.676h23.84l-19.289 14.011 7.368 22.675-19.288-14.014-19.288 14.014 7.368-22.675-19.288-14.011h23.84z"/><path d="m68.638 98.315 7.367 22.676h23.842l-19.289 14.012 7.368 22.675-19.288-14.014-19.288 14.014 7.367-22.675-19.288-14.012h23.841z"/></g></svg>