<svg xmlns="http://www.w3.org/2000/svg" viewBox="0 0 512 512"><path fill="#F0F0F0" d="M0 0H512V512H0z"/><path d="M114.024 256.001L0 84.885 0 427.147z"/><path fill="#FFDA44" d="M161.192 256L0 14.044 0 84.885 114.024 256.001 0 427.147 0 497.858z"/><path d="M509.833 306.088c.058-.659.804-1.318 2.167-1.977v-98.199H222.602L85.33 0H0v14.044L161.192 256 0 497.858V512h85.33l137.272-205.912h287.231z" fill="#6DA544"/><path fill="#0052B4" d="M503.181 356.176L236.433 356.176 132.552 512 512 512 512 356.176z"/><path fill="#D80027" d="M503.181 155.824L512 155.824 512 0 132.552 0 236.433 155.824z"/></svg>