<svg xmlns="http://www.w3.org/2000/svg" viewBox="0 0 512 512"><path fill="#496E2D" d="M0 0H512V512H0z"/><path d="M490.668 195.479h-48c0-8.836-7.164-16-16-16s-16 7.164-16 16h-48c0 8.836 7.697 16 16.533 16h-.533c0 8.836 7.162 16 16 16 0 8.836 7.162 16 16 16h32c8.836 0 16-7.164 16-16 8.836 0 16-7.164 16-16h-.533c8.837 0 16.533-7.163 16.533-16z" fill="#FF9811"/><path fill="#D80027" d="M341.337 256H398.22499999999997V512H341.337z"/><path fill="#FF9811" d="M455.112 256H512V512H455.112z"/><path d="M398.225 256H455.113V512H398.225z"/></svg>