<svg xmlns="http://www.w3.org/2000/svg" viewBox="0 0 512 512"><path d="M0 0H512V512H0z"/><path fill="#FFDA44" d="M0 73.302H512V146.603H0z"/><path fill="#FFDA44" d="M0 366.512H512V439.814H0z"/><path fill="#6DA544" d="M0 0H512V73.302H0z"/><path fill="#D80027" d="M0 146.608H512V219.909H0z"/><path fill="#D80027" d="M0 293.207H512V366.508H0z"/><path fill="#6DA544" d="M0 439.806H512V511.99399999999997H0z"/><path fill="#F0F0F0" d="M276.992 255.998L106.329 511.989 0 511.989 0 0.006 106.329 0.006z"/><path d="M256 255.998L85.334 511.994 106.321 511.994 276.988 255.998 106.321 0 85.334 0z"/><path fill="#D80027" d="M102.463 171.313L123.482 236.003 191.509 236.003 136.477 275.989 157.496 340.683 102.463 300.7 47.431 340.683 68.453 275.989 13.422 236.003 81.444 236.003z"/><path d="M160.28 261.29l-54.778-19.407s-4.048-37.97-4.292-39.257c-1.859-9.795-10.465-17.2-20.799-17.2-11.693 0-21.171 9.479-21.171 21.171 0 1.939.283 3.807.77 5.592l-15.359 15.462H71.96c0 28.346-21.152 28.346-21.152 56.574l11.733 28.228h70.571l11.764-28.228h-.007a28.21 28.21 0 0 0 2.189-8.293c10.139-4.1 13.222-14.642 13.222-14.642z" fill="#FFDA44"/></svg>